<svg
  version="1.1"
  viewBox="0.0 0.0 96.0 96.0"
  fill="none"
  stroke="none"
  stroke-linecap="square"
  stroke-miterlimit="10"
  xmlns:xlink="http://www.w3.org/1999/xlink"
  xmlns="http://www.w3.org/2000/svg"
><clipPath id="g14470d71bf0_0_149.0"><path
      d="m0 0l96.0 0l0 96.0l-96.0 0l0 -96.0z"
      clip-rule="nonzero"
    /></clipPath><g clip-path="url(#g14470d71bf0_0_149.0)"><path
      fill="#000000"
      fill-opacity="0.0"
      d="m0 0l96.0 0l0 96.0l-96.0 0z"
      fill-rule="evenodd"
    /><path
      fill="#999999"
      d="m50.628822 91.18427l37.40571 -21.782593l0 -43.1138l-37.40571 -21.480791l-22.38359 12.61816l37.40571 21.782597l-2.4039574 1.8029709l-2.703144 2.1021538l-1.6533775 2.10215l-2.2517433 2.8553581l-1.9551849 3.154541l-1.650753 3.154541l-1.3515701 4.2069283l-0.45140076 3.0023232l-0.2991829 3.605938l-37.555298 -21.480793l0 25.986904z"
      fill-rule="evenodd"
    /><path
      stroke="#000000"
      stroke-width="4.0"
      stroke-linejoin="round"
      stroke-linecap="butt"
      d="m50.628822 91.18427l37.40571 -21.782593l0 -43.1138l-37.40571 -21.480791l-22.38359 12.61816l37.40571 21.782597l-2.4039574 1.8029709l-2.703144 2.1021538l-1.6533775 2.10215l-2.2517433 2.8553581l-1.9551849 3.154541l-1.650753 3.154541l-1.3515701 4.2069283l-0.45140076 3.0023232l-0.2991829 3.605938l-37.555298 -21.480793l0 25.986904z"
      fill-rule="evenodd"
    /><path
      fill="#ffff00"
      d="m43.117744 25.840397l22.53318 13.219151l-1.8029709 1.3515701l-1.8029671 1.3515701l-1.9525604 1.6533775l-1.8029709 1.650753l-1.8029671 2.1047783l-1.5011635 2.5535507l-1.9525604 3.154541l-1.0523872 3.3041306l-0.6009903 2.8527336l-0.44877625 2.5535507l-0.15221405 3.7555313l-37.555298 -21.480793l0 -3.0049515l0.45139885 -3.9051208l0.60098934 -2.4039574l1.3515711 -3.453724l1.802969 -3.605938l2.2543678 -2.5535507l1.650753 -1.9525604l2.1047764 -1.9525604l2.5535507 -1.802969l2.2517433 -1.5011635z"
      fill-rule="evenodd"
    /><path
      stroke="#000000"
      stroke-width="4.0"
      stroke-linejoin="round"
      stroke-linecap="butt"
      d="m43.117744 25.840397l22.53318 13.219151l-1.8029709 1.3515701l-1.8029671 1.3515701l-1.9525604 1.6533775l-1.8029709 1.650753l-1.8029671 2.1047783l-1.5011635 2.5535507l-1.9525604 3.154541l-1.0523872 3.3041306l-0.6009903 2.8527336l-0.44877625 2.5535507l-0.15221405 3.7555313l-37.555298 -21.480793l0 -3.0049515l0.45139885 -3.9051208l0.60098934 -2.4039574l1.3515711 -3.453724l1.802969 -3.605938l2.2543678 -2.5535507l1.650753 -1.9525604l2.1047764 -1.9525604l2.5535507 -1.802969l2.2517433 -1.5011635z"
      fill-rule="evenodd"
    /><path
      fill="#000000"
      fill-opacity="0.0"
      d="m65.50656 39.211285l22.58268 -12.755905"
      fill-rule="evenodd"
    /><path
      stroke="#000000"
      stroke-width="4.0"
      stroke-linejoin="round"
      stroke-linecap="butt"
      d="m65.50656 39.211285l22.58268 -12.755905"
      fill-rule="evenodd"
    /><path
      fill="#000000"
      fill-opacity="0.0"
      d="m50.78215 65.350395l-0.18897629 25.228348"
      fill-rule="evenodd"
    /><path
      stroke="#000000"
      stroke-width="4.0"
      stroke-linejoin="round"
      stroke-linecap="butt"
      d="m50.78215 65.350395l-0.18897629 25.228348"
      fill-rule="evenodd"
    /></g></svg>
