<svg
  version="1.1"
  viewBox="0.0 0.0 96.0 96.0"
  fill="none"
  stroke="none"
  stroke-linecap="square"
  stroke-miterlimit="10"
  xmlns:xlink="http://www.w3.org/1999/xlink"
  xmlns="http://www.w3.org/2000/svg"
><clipPath id="g1dfc3c29540_0_0.0"><path
      d="m0 0l96.0 0l0 96.0l-96.0 0l0 -96.0z"
      clip-rule="nonzero"
    /></clipPath><g clip-path="url(#g1dfc3c29540_0_0.0)"><path
      fill="#000000"
      fill-opacity="0.0"
      d="m0 0l96.0 0l0 96.0l-96.0 0z"
      fill-rule="evenodd"
    /><path
      fill="#999999"
      d="m2.7178478 16.619316l22.155388 -14.16l22.331495 14.256321l-22.15567 13.96736z"
      fill-rule="evenodd"
    /><path
      stroke="#000000"
      stroke-width="4.0"
      stroke-linejoin="round"
      stroke-linecap="butt"
      d="m2.7178478 16.619316l22.155388 -14.16l22.331495 14.256321l-22.15567 13.96736z"
      fill-rule="evenodd"
    /><path
      fill="#999999"
      d="m2.7178478 16.71427l0 28.199999l22.123867 14.004089l0 -28.2z"
      fill-rule="evenodd"
    /><path
      stroke="#000000"
      stroke-width="4.0"
      stroke-linejoin="round"
      stroke-linecap="butt"
      d="m2.7178478 16.71427l0 28.199999l22.123867 14.004089l0 -28.2z"
      fill-rule="evenodd"
    /><path
      fill="#999999"
      d="m25.02383 30.68163l22.15567 -13.96736l0 28.12736l-22.15567 14.16z"
      fill-rule="evenodd"
    /><path
      stroke="#000000"
      stroke-width="4.0"
      stroke-linejoin="round"
      stroke-linecap="butt"
      d="m25.02383 30.68163l22.15567 -13.96736l0 28.12736l-22.15567 14.16z"
      fill-rule="evenodd"
    /><path
      fill="#000000"
      fill-opacity="0.0"
      d="m51.636265 10.283416l0 0c6.4060555 -1.9204941 13.435429 -0.013095856 18.564892 5.037527c5.129471 5.050622 7.6231613 12.519904 6.5859604 19.726727l-19.151306 -4.3184433z"
      fill-rule="evenodd"
    /><path
      fill="#000000"
      fill-opacity="0.0"
      d="m51.636265 10.283416l0 0c6.4060555 -1.9204941 13.435429 -0.013095856 18.564892 5.037527c5.129471 5.050622 7.6231613 12.519904 6.5859604 19.726727"
      fill-rule="evenodd"
    /><path
      stroke="#4285f4"
      stroke-width="4.0"
      stroke-linejoin="round"
      stroke-linecap="butt"
      d="m51.63626 10.283416l0 0c6.406063 -1.9204931 13.435432 -0.013096809 18.564903 5.037527c0.64118195 0.6313286 1.2411804 1.3004465 1.7982483 2.002122c0.069633484 0.08770943 0.13859558 0.17592621 0.20687866 0.26464462l0.03326416 0.043884277"
      fill-rule="evenodd"
    /><path
      fill="#4285f4"
      stroke="#4285f4"
      stroke-width="4.0"
      stroke-linecap="butt"
      d="m67.95993 18.749058l7.3498306 10.640701l1.2094193 -12.875629z"
      fill-rule="evenodd"
    /><path
      fill="#999999"
      d="m54.45669 52.719162l14.598423 -8.813652l13.3622055 6.6115494l-12.671913 9.228348z"
      fill-rule="evenodd"
    /><path
      stroke="#000000"
      stroke-width="4.0"
      stroke-linejoin="round"
      stroke-linecap="butt"
      d="m54.45669 52.719162l14.598423 -8.813652l13.3622055 6.6115494l-12.671913 9.228348z"
      fill-rule="evenodd"
    /><path
      fill="#eeff41"
      d="m54.593174 52.582676l-5.931755 26.784779l22.123356 14.005249l-0.62729645 -33.490814z"
      fill-rule="evenodd"
    /><path
      stroke="#000000"
      stroke-width="4.0"
      stroke-linejoin="round"
      stroke-linecap="butt"
      d="m54.593174 52.582676l-5.931755 26.784779l22.123356 14.005249l-0.62729645 -33.490814z"
      fill-rule="evenodd"
    /><path
      fill="#eeff41"
      d="m70.57218 60.157482l11.845139 -9.77953l10.706039 28.918633l-22.154854 14.16011z"
      fill-rule="evenodd"
    /><path
      stroke="#000000"
      stroke-width="4.0"
      stroke-linejoin="round"
      stroke-linecap="butt"
      d="m70.57218 60.157482l11.845139 -9.77953l10.706039 28.918633l-22.154854 14.16011z"
      fill-rule="evenodd"
    /></g></svg>
