<svg
  version="1.1"
  viewBox="0.0 0.0 96.0 96.0"
  fill="none"
  stroke="none"
  stroke-linecap="square"
  stroke-miterlimit="10"
  xmlns:xlink="http://www.w3.org/1999/xlink"
  xmlns="http://www.w3.org/2000/svg"
><clipPath id="g14470d71bf0_0_310.0"><path
      d="m0 0l96.0 0l0 96.0l-96.0 0l0 -96.0z"
      clip-rule="nonzero"
    /></clipPath><g clip-path="url(#g14470d71bf0_0_310.0)"><path
      fill="#000000"
      fill-opacity="0.0"
      d="m0 0l96.0 0l0 96.0l-96.0 0z"
      fill-rule="evenodd"
    /><path
      fill="#ffff00"
      d="m3.1574802 44.335957l0 0c0 -15.60313 20.009699 -28.251966 44.692917 -28.251966l0 0c24.683212 0 44.69291 12.648836 44.69291 28.251966l0 0c0 15.603134 -20.009697 28.251972 -44.69291 28.251972l0 0c-24.683216 0 -44.692917 -12.648838 -44.692917 -28.251972zm24.59447 0c0 2.0199814 8.998379 3.6575012 20.098446 3.6575012c11.100063 0 20.098442 -1.6375198 20.098442 -3.6575012c0 -2.0199814 -8.998379 -3.6574974 -20.098442 -3.6574974l0 0c-11.100067 0 -20.098446 1.637516 -20.098446 3.6574974z"
      fill-rule="evenodd"
    /><path
      stroke="#000000"
      stroke-width="4.0"
      stroke-linejoin="round"
      stroke-linecap="butt"
      d="m3.1574802 44.335957l0 0c0 -15.60313 20.009699 -28.251966 44.692917 -28.251966l0 0c24.683212 0 44.69291 12.648836 44.69291 28.251966l0 0c0 15.603134 -20.009697 28.251972 -44.69291 28.251972l0 0c-24.683216 0 -44.692917 -12.648838 -44.692917 -28.251972zm24.59447 0c0 2.0199814 8.998379 3.6575012 20.098446 3.6575012c11.100063 0 20.098442 -1.6375198 20.098442 -3.6575012c0 -2.0199814 -8.998379 -3.6574974 -20.098442 -3.6574974l0 0c-11.100067 0 -20.098446 1.637516 -20.098446 3.6574974z"
      fill-rule="evenodd"
    /><path
      fill="#000000"
      fill-opacity="0.0"
      d="m3.1574826 44.328403l0 0c-0.0026373863 -3.3257637 2.3460755 -6.3998528 6.1610913 -8.063885c3.8150167 -1.664032 8.516503 -1.6650925 12.332839 -0.002784729c3.8163357 1.6623077 6.1674843 4.7353363 6.1674843 8.0611l-12.3307085 0z"
      fill-rule="evenodd"
    /><path
      fill="#000000"
      fill-opacity="0.0"
      d="m3.1574826 44.328403l0 0c-0.0026373863 -3.3257637 2.3460755 -6.3998528 6.1610913 -8.063885c3.8150167 -1.664032 8.516503 -1.6650925 12.332839 -0.002784729c3.8163357 1.6623077 6.1674843 4.7353363 6.1674843 8.0611"
      fill-rule="evenodd"
    /><path
      stroke="#000000"
      stroke-width="4.0"
      stroke-linejoin="round"
      stroke-linecap="butt"
      d="m3.1574826 44.328403l0 0c-0.0026373863 -3.3257637 2.3460755 -6.3998528 6.1610913 -8.063885c3.8150167 -1.664032 8.516503 -1.6650925 12.332839 -0.002784729c3.8163357 1.6623077 6.1674843 4.7353363 6.1674843 8.0611"
      fill-rule="evenodd"
    /><path
      fill="#000000"
      fill-opacity="0.0"
      d="m27.7874 44.317265l0 0c0.0026378632 3.3257637 -2.346075 6.3998528 -6.161091 8.063885c-3.8150177 1.664032 -8.516504 1.6650963 -12.332839 0.0027885437c-3.8163352 -1.6623077 -6.167485 -4.7353363 -6.167485 -8.061104l12.3307085 0z"
      fill-rule="evenodd"
    /><path
      fill="#000000"
      fill-opacity="0.0"
      d="m27.7874 44.317265l0 0c0.0026378632 3.3257637 -2.346075 6.3998528 -6.161091 8.063885c-3.8150177 1.664032 -8.516504 1.6650963 -12.332839 0.0027885437c-3.8163352 -1.6623077 -6.167485 -4.7353363 -6.167485 -8.061104"
      fill-rule="evenodd"
    /><path
      stroke="#000000"
      stroke-width="1.0"
      stroke-linejoin="round"
      stroke-linecap="butt"
      stroke-dasharray="1.0,3.0"
      d="m27.7874 44.317265l0 0c0.0026378632 3.3257637 -2.346075 6.3998528 -6.161091 8.063885c-3.8150177 1.664032 -8.516504 1.6650963 -12.332839 0.0027885437c-3.8163352 -1.6623077 -6.167485 -4.7353363 -6.167485 -8.061104"
      fill-rule="evenodd"
    /></g></svg>
