<svg version="1.1" viewBox="0.0 0.0 96.0 96.0" fill="none" stroke="none" stroke-linecap="square" stroke-miterlimit="10" xmlns:xlink="http://www.w3.org/1999/xlink" xmlns="http://www.w3.org/2000/svg"><clipPath id="g14470d71bf0_0_144.0"><path d="m0 0l96.0 0l0 96.0l-96.0 0l0 -96.0z" clip-rule="nonzero"/></clipPath><g clip-path="url(#g14470d71bf0_0_144.0)"><path fill="#000000" fill-opacity="0.0" d="m0 0l96.0 0l0 96.0l-96.0 0z" fill-rule="evenodd"/><path fill="#000000" fill-opacity="0.0" d="m12.141732 69.301834l71.71654 -41.133858" fill-rule="evenodd"/><path stroke="#000000" stroke-width="3.0" stroke-linejoin="round" stroke-linecap="butt" d="m12.141732 69.301834l71.71654 -41.133858" fill-rule="evenodd"/><path fill="#00ffff" d="m8.545932 69.23622l0 0c0 -2.4700623 1.9741774 -4.4724426 4.4094486 -4.4724426l0 0c1.1694584 0 2.2910194 0.47120667 3.1179514 1.3099518c0.8269329 0.8387451 1.2914982 1.976326 1.2914982 3.1624908l0 0c0 2.4700623 -1.9741783 4.4724426 -4.4094496 4.4724426l0 0c-2.4352713 0 -4.4094486 -2.0023804 -4.4094486 -4.4724426z" fill-rule="evenodd"/><path fill="#00ffff" d="m79.28871 28.359581l0 0c0 -2.4700623 1.9741821 -4.4724426 4.4094543 -4.4724426l0 0c1.1694565 0 2.2910156 0.47120285 3.1179504 1.309948c0.8269272 0.8387451 1.2914963 1.9763279 1.2914963 3.1624947l0 0c0 2.4700603 -1.9741821 4.472439 -4.4094467 4.472439l0 0c-2.4352722 0 -4.4094543 -2.0023785 -4.4094543 -4.472439z" fill-rule="evenodd"/></g></svg>