<svg
  version="1.1"
  viewBox="0.0 0.0 96.0 96.0"
  fill="none"
  stroke="none"
  stroke-linecap="square"
  stroke-miterlimit="10"
  xmlns:xlink="http://www.w3.org/1999/xlink"
  xmlns="http://www.w3.org/2000/svg"
><clipPath id="g14470d71bf0_0_302.0"><path
      d="m0 0l96.0 0l0 96.0l-96.0 0l0 -96.0z"
      clip-rule="nonzero"
    /></clipPath><g clip-path="url(#g14470d71bf0_0_302.0)"><path
      fill="#000000"
      fill-opacity="0.0"
      d="m0 0l96.0 0l0 96.0l-96.0 0z"
      fill-rule="evenodd"
    /><path
      fill="#ffff00"
      d="m16.750656 74.51042l31.175358 -66.38706l31.317081 66.38706l-2.5535507 4.0547104l-3.9077454 3.154541l-4.805298 2.2543716l-5.2593155 1.5011597l-5.708088 1.052391l-5.558502 0.75057983l-6.309078 0.14958954l-6.0072746 -0.44877625l-5.408905 -1.2019806l-5.1071033 -1.5037842l-5.1070995 -2.2517395l-4.057337 -3.3067627z"
      fill-rule="evenodd"
    /><path
      stroke="#000000"
      stroke-width="4.0"
      stroke-linejoin="round"
      stroke-linecap="butt"
      d="m16.750656 74.51042l31.175358 -66.38706l31.317081 66.38706l-2.5535507 4.0547104l-3.9077454 3.154541l-4.805298 2.2543716l-5.2593155 1.5011597l-5.708088 1.052391l-5.558502 0.75057983l-6.309078 0.14958954l-6.0072746 -0.44877625l-5.408905 -1.2019806l-5.1071033 -1.5037842l-5.1070995 -2.2517395l-4.057337 -3.3067627z"
      fill-rule="evenodd"
    /></g></svg>
