<svg
  version="1.1"
  viewBox="0.0 0.0 96.0 96.0"
  fill="none"
  stroke="none"
  stroke-linecap="square"
  stroke-miterlimit="10"
  xmlns:xlink="http://www.w3.org/1999/xlink"
  xmlns="http://www.w3.org/2000/svg"
><clipPath id="g14470d71bf0_0_168.0"><path
      d="m0 0l96.0 0l0 96.0l-96.0 0l0 -96.0z"
      clip-rule="nonzero"
    /></clipPath><g clip-path="url(#g14470d71bf0_0_168.0)"><path
      fill="#000000"
      fill-opacity="0.0"
      d="m0 0l96.0 0l0 96.0l-96.0 0z"
      fill-rule="evenodd"
    /><path
      fill="#999999"
      d="m50.574802 26.374016l0 0c-12.498161 0 -22.629921 -4.1669254 -22.629921 -9.307087l0 0c0 -2.4683924 2.3842182 -4.8356867 6.628151 -6.5811033c4.2439346 -1.7454176 9.999943 -2.7259831 16.00177 -2.7259831l0 0c12.498161 0 22.629925 4.166925 22.629925 9.307087l0 0c0 5.1401615 -10.131763 9.307087 -22.629925 9.307087z"
      fill-rule="evenodd"
    /><path
      stroke="#000000"
      stroke-width="4.0"
      stroke-linejoin="round"
      stroke-linecap="butt"
      d="m50.574802 26.374016l0 0c-12.498161 0 -22.629921 -4.1669254 -22.629921 -9.307087l0 0c0 -2.4683924 2.3842182 -4.8356867 6.628151 -6.5811033c4.2439346 -1.7454176 9.999943 -2.7259831 16.00177 -2.7259831l0 0c12.498161 0 22.629925 4.166925 22.629925 9.307087l0 0c0 5.1401615 -10.131763 9.307087 -22.629925 9.307087z"
      fill-rule="evenodd"
    /><path
      fill="#ffff00"
      d="m14.272966 67.2482l36.50554 21.016273l30.941788 -21.467667l-8.109428 -50.036995l-0.9001694 3.154541l-3.4563522 3.0049496l-4.80529 2.1021519l-10.366417 1.6533775l-6.4586716 0.14959145l-5.7080917 -0.75058174l-5.2593155 -1.5037861l-4.3565216 -1.650753l-3.453722 -3.0049496l-1.0550117 -3.4406013z"
      fill-rule="evenodd"
    /><path
      stroke="#000000"
      stroke-width="4.0"
      stroke-linejoin="round"
      stroke-linecap="butt"
      d="m14.272966 67.2482l36.50554 21.016273l30.941788 -21.467667l-8.109428 -50.036995l-0.9001694 3.154541l-3.4563522 3.0049496l-4.80529 2.1021519l-10.366417 1.6533775l-6.4586716 0.14959145l-5.7080917 -0.75058174l-5.2593155 -1.5037861l-4.3565216 -1.650753l-3.453722 -3.0049496l-1.0550117 -3.4406013z"
      fill-rule="evenodd"
    /><path
      fill="#000000"
      fill-opacity="0.0"
      d="m50.669292 87.41338l-0.09449005 -61.039368"
      fill-rule="evenodd"
    /><path
      stroke="#000000"
      stroke-width="4.0"
      stroke-linejoin="round"
      stroke-linecap="butt"
      d="m50.669292 87.41338l-0.09449005 -61.039368"
      fill-rule="evenodd"
    /></g></svg>
