<svg
  version="1.1"
  viewBox="0.0 0.0 96.0 96.0"
  fill="none"
  stroke="none"
  stroke-linecap="square"
  stroke-miterlimit="10"
  xmlns:xlink="http://www.w3.org/1999/xlink"
  xmlns="http://www.w3.org/2000/svg"
><clipPath id="g14470d71bf0_0_292.0"><path
      d="m0 0l96.0 0l0 96.0l-96.0 0l0 -96.0z"
      clip-rule="nonzero"
    /></clipPath><g clip-path="url(#g14470d71bf0_0_292.0)"><path
      fill="#000000"
      fill-opacity="0.0"
      d="m0 0l96.0 0l0 96.0l-96.0 0z"
      fill-rule="evenodd"
    /><path
      fill="#ffff00"
      d="m16.755905 23.697569l0 0c0 7.9853325 13.981407 14.458723 31.228348 14.458723c17.24694 0 31.228348 -6.4733906 31.228348 -14.458723l0 50.074677c0 7.9853287 -13.981407 14.458725 -31.228348 14.458725c-17.24694 0 -31.228348 -6.4733963 -31.228348 -14.458725z"
      fill-rule="evenodd"
    /><path
      fill="#ffff66"
      d="m16.755905 23.697569l0 0c0 -7.9853325 13.981407 -14.458724 31.228348 -14.458724c17.24694 0 31.228348 6.4733915 31.228348 14.458724l0 0c0 7.9853325 -13.981407 14.458723 -31.228348 14.458723c-17.24694 0 -31.228348 -6.4733906 -31.228348 -14.458723z"
      fill-rule="evenodd"
    /><path
      fill="#000000"
      fill-opacity="0.0"
      d="m79.2126 23.697569l0 0c0 7.9853325 -13.981407 14.458723 -31.228348 14.458723c-17.24694 0 -31.228348 -6.4733906 -31.228348 -14.458723l0 0c0 -7.9853325 13.981407 -14.458724 31.228348 -14.458724c17.24694 0 31.228348 6.4733915 31.228348 14.458724l0 50.074677c0 7.9853287 -13.981407 14.458725 -31.228348 14.458725c-17.24694 0 -31.228348 -6.4733963 -31.228348 -14.458725l0 -50.074677"
      fill-rule="evenodd"
    /><path
      stroke="#000000"
      stroke-width="4.0"
      stroke-linejoin="round"
      stroke-linecap="butt"
      d="m79.2126 23.697569l0 0c0 7.9853325 -13.981407 14.458723 -31.228348 14.458723c-17.24694 0 -31.228348 -6.4733906 -31.228348 -14.458723l0 0c0 -7.9853325 13.981407 -14.458724 31.228348 -14.458724c17.24694 0 31.228348 6.4733915 31.228348 14.458724l0 50.074677c0 7.9853287 -13.981407 14.458725 -31.228348 14.458725c-17.24694 0 -31.228348 -6.4733963 -31.228348 -14.458725l0 -50.074677"
      fill-rule="evenodd"
    /></g></svg>
