<svg
  version="1.1"
  viewBox="0.0 0.0 96.0 96.0"
  fill="none"
  stroke="none"
  stroke-linecap="square"
  stroke-miterlimit="10"
  xmlns:xlink="http://www.w3.org/1999/xlink"
  xmlns="http://www.w3.org/2000/svg"
><clipPath id="g14470d71bf0_0_162.0"><path
      d="m0 0l96.0 0l0 96.0l-96.0 0l0 -96.0z"
      clip-rule="nonzero"
    /></clipPath><g clip-path="url(#g14470d71bf0_0_162.0)"><path
      fill="#000000"
      fill-opacity="0.0"
      d="m0 0l96.0 0l0 96.0l-96.0 0z"
      fill-rule="evenodd"
    /><path
      fill="#ffff00"
      d="m2.9921968 73.012924l8.106551 -8.070236l17.470592 -11.472012l5.171591 -5.0964737l3.4941177 -6.0885544l3.9140968 -11.754047l3.7724762 -7.5061646l5.591568 -4.955454l11.459049 -9.34683l13.417316 0.28203773l8.387352 8.639263l0 8.354752l-12.579803 9.34683l-5.8699265 6.514084l-2.2366257 5.522003l-2.5149841 8.639263l-3.633297 7.362671l-6.1507225 5.9475327l-10.062382 7.080635l-8.384907 5.0989456l-25.15717 0.14102173l-4.334075 0.28450775z"
      fill-rule="evenodd"
    /><path
      fill="#000000"
      fill-opacity="0.0"
      d="m10.918214 64.90562c3.8900871 -2.8323326 17.703373 -10.196651 23.340519 -16.99401c5.637146 -6.7973595 5.637146 -17.20513 10.482357 -23.790134c4.845211 -6.5850067 15.490757 -13.099914 18.58891 -15.719896"
      fill-rule="evenodd"
    /><path
      stroke="#000000"
      stroke-width="4.0"
      stroke-linejoin="round"
      stroke-linecap="butt"
      d="m10.918214 64.90562c3.8900871 -2.8323326 17.703373 -10.196651 23.340519 -16.99401c5.637146 -6.7973595 5.637146 -17.20513 10.482357 -23.790134c4.845211 -6.5850067 15.490757 -13.099914 18.58891 -15.719896"
      fill-rule="evenodd"
    /><path
      fill="#999999"
      d="m3.2730048 81.58748l0 -8.780281l7.639947 -7.6471863l13.114318 0l8.360125 8.2137375l0 8.495766z"
      fill-rule="evenodd"
    /><path
      stroke="#000000"
      stroke-width="4.0"
      stroke-linejoin="round"
      stroke-linecap="butt"
      d="m3.2730048 81.58748l0 -8.780281l7.639947 -7.6471863l13.114318 0l8.360125 8.2137375l0 8.495766z"
      fill-rule="evenodd"
    /><path
      fill="#000000"
      fill-opacity="0.0"
      d="m58.54511 60.48972l0.09449005 -7.937008"
      fill-rule="evenodd"
    /><path
      stroke="#000000"
      stroke-width="4.0"
      stroke-linejoin="round"
      stroke-linecap="butt"
      d="m58.54511 60.48972l0.09449005 -7.937008"
      fill-rule="evenodd"
    /><path
      fill="#000000"
      fill-opacity="0.0"
      d="m58.825916 52.682804l-8.125984 -8.503937"
      fill-rule="evenodd"
    /><path
      stroke="#000000"
      stroke-width="4.0"
      stroke-linejoin="round"
      stroke-linecap="butt"
      d="m58.825916 52.682804l-8.125984 -8.503937"
      fill-rule="evenodd"
    /><path
      fill="#000000"
      fill-opacity="0.0"
      d="m50.438404 43.903736l-12.283463 0"
      fill-rule="evenodd"
    /><path
      stroke="#000000"
      stroke-width="4.0"
      stroke-linejoin="round"
      stroke-linecap="butt"
      d="m50.438404 43.903736l-12.283463 0"
      fill-rule="evenodd"
    /><path
      fill="#000000"
      fill-opacity="0.0"
      d="m71.166664 34.746197l0.09449005 -7.937008"
      fill-rule="evenodd"
    /><path
      stroke="#000000"
      stroke-width="4.0"
      stroke-linejoin="round"
      stroke-linecap="butt"
      d="m71.166664 34.746197l0.09449005 -7.937008"
      fill-rule="evenodd"
    /><path
      fill="#000000"
      fill-opacity="0.0"
      d="m71.44747 26.939283l-8.125984 -8.503937"
      fill-rule="evenodd"
    /><path
      stroke="#000000"
      stroke-width="4.0"
      stroke-linejoin="round"
      stroke-linecap="butt"
      d="m71.44747 26.939283l-8.125984 -8.503937"
      fill-rule="evenodd"
    /><path
      fill="#000000"
      fill-opacity="0.0"
      d="m63.05996 18.160217l-12.283463 0"
      fill-rule="evenodd"
    /><path
      stroke="#000000"
      stroke-width="4.0"
      stroke-linejoin="round"
      stroke-linecap="butt"
      d="m63.05996 18.160217l-12.283463 0"
      fill-rule="evenodd"
    /><path
      fill="#000000"
      fill-opacity="0.0"
      d="m32.38267 81.87502c3.8900871 -2.8323364 17.703373 -10.196655 23.340519 -16.994019c5.637146 -6.7973557 5.637146 -17.205128 10.482353 -23.790134c4.845215 -6.585003 15.490761 -13.099913 18.588913 -15.719894"
      fill-rule="evenodd"
    /><path
      stroke="#000000"
      stroke-width="4.0"
      stroke-linejoin="round"
      stroke-linecap="butt"
      d="m32.38267 81.87502c3.8900871 -2.8323364 17.703373 -10.196655 23.340519 -16.994019c5.637146 -6.7973557 5.637146 -17.205128 10.482353 -23.790134c4.845215 -6.585003 15.490761 -13.099913 18.588913 -15.719894"
      fill-rule="evenodd"
    /><path
      fill="#000000"
      fill-opacity="0.0"
      d="m31.503632 73.326004c3.8900871 -2.8323364 17.703373 -10.196655 23.340519 -16.994015c5.637146 -6.7973557 5.637146 -17.205128 10.482357 -23.790134c4.845207 -6.585005 15.490753 -13.099913 18.588905 -15.719896"
      fill-rule="evenodd"
    /><path
      stroke="#000000"
      stroke-width="4.0"
      stroke-linejoin="round"
      stroke-linecap="butt"
      d="m31.503632 73.326004c3.8900871 -2.8323364 17.703373 -10.196655 23.340519 -16.994015c5.637146 -6.7973557 5.637146 -17.205128 10.482357 -23.790134c4.845207 -6.585005 15.490753 -13.099913 18.588905 -15.719896"
      fill-rule="evenodd"
    /><path
      fill="#000000"
      fill-opacity="0.0"
      d="m23.956093 65.16783c3.8900852 -2.8323364 17.703373 -10.196659 23.340519 -16.994015c5.637146 -6.7973595 5.637146 -17.205132 10.482357 -23.790136c4.845211 -6.585005 15.490753 -13.099914 18.588905 -15.719896"
      fill-rule="evenodd"
    /><path
      stroke="#000000"
      stroke-width="4.0"
      stroke-linejoin="round"
      stroke-linecap="butt"
      d="m23.956093 65.16783c3.8900852 -2.8323364 17.703373 -10.196659 23.340519 -16.994015c5.637146 -6.7973595 5.637146 -17.205132 10.482357 -23.790136c4.845211 -6.585005 15.490753 -13.099914 18.588905 -15.719896"
      fill-rule="evenodd"
    /><path
      fill="#000000"
      fill-opacity="0.0"
      d="m83.91763 26.798285l0 -10.3937"
      fill-rule="evenodd"
    /><path
      stroke="#000000"
      stroke-width="4.0"
      stroke-linejoin="round"
      stroke-linecap="butt"
      d="m83.91763 26.798285l0 -10.3937"
      fill-rule="evenodd"
    /><path
      fill="#000000"
      fill-opacity="0.0"
      d="m84.33762 17.925219l-8.787407 -9.543307"
      fill-rule="evenodd"
    /><path
      stroke="#000000"
      stroke-width="4.0"
      stroke-linejoin="round"
      stroke-linecap="butt"
      d="m84.33762 17.925219l-8.787407 -9.543307"
      fill-rule="evenodd"
    /><path
      fill="#000000"
      fill-opacity="0.0"
      d="m76.790085 8.864152l-14.834648 0"
      fill-rule="evenodd"
    /><path
      stroke="#000000"
      stroke-width="4.0"
      stroke-linejoin="round"
      stroke-linecap="butt"
      d="m76.790085 8.864152l-14.834648 0"
      fill-rule="evenodd"
    /><path
      fill="#000000"
      fill-opacity="0.0"
      d="m44.020996 84.28565c3.6807365 -2.6038513 16.801472 -9.21386 22.084404 -15.623108c5.282936 -6.4092445 4.631645 -15.964718 9.613213 -22.83236c4.9815674 -6.8676453 16.896828 -15.311243 20.276192 -18.373491"
      fill-rule="evenodd"
    /><path
      stroke="#4285f4"
      stroke-width="3.0"
      stroke-linejoin="round"
      stroke-linecap="butt"
      d="m44.020996 84.28565c3.6807327 -2.6038437 16.801468 -9.21386 22.084404 -15.623108c5.282936 -6.4092445 4.631653 -15.964722 9.61322 -22.83236c1.2453842 -1.7169075 2.924141 -3.532318 4.794525 -5.337517c0.46759796 -0.45129776 0.9471741 -0.9019623 1.4349518 -1.3502846l0.20141602 -0.18317032"
      fill-rule="evenodd"
    /><path
      fill="#4285f4"
      stroke="#4285f4"
      stroke-width="3.0"
      stroke-linecap="butt"
      d="m85.31603 42.770668l7.305359 -12.511381l-13.63839 4.888479z"
      fill-rule="evenodd"
    /></g></svg>
