<svg
  version="1.1"
  viewBox="0.0 0.0 96.0 96.0"
  fill="none"
  stroke="none"
  stroke-linecap="square"
  stroke-miterlimit="10"
  xmlns:xlink="http://www.w3.org/1999/xlink"
  xmlns="http://www.w3.org/2000/svg"
><clipPath id="g14470d71bf0_0_0.0"><path
      d="m0 0l96.0 0l0 96.0l-96.0 0l0 -96.0z"
      clip-rule="nonzero"
    /></clipPath><g clip-path="url(#g14470d71bf0_0_0.0)"><path
      fill="#000000"
      fill-opacity="0.0"
      d="m0 0l96.0 0l0 96.0l-96.0 0z"
      fill-rule="evenodd"
    /><path
      fill="#ffff00"
      d="m3.162729 40.00606l31.350801 -17.712l31.599995 17.832483l-31.351196 17.471035z"
      fill-rule="evenodd"
    /><path
      stroke="#000000"
      stroke-width="4.0"
      stroke-linejoin="round"
      stroke-linecap="butt"
      d="m3.162729 40.00606l31.350801 -17.712l31.599995 17.832483l-31.351196 17.471035z"
      fill-rule="evenodd"
    /><path
      fill="#ffff00"
      d="m3.162729 40.104797l0 35.28l31.350782 17.520012l0 -35.280003z"
      fill-rule="evenodd"
    /><path
      stroke="#000000"
      stroke-width="4.0"
      stroke-linejoin="round"
      stroke-linecap="butt"
      d="m3.162729 40.104797l0 35.28l31.350782 17.520012l0 -35.280003z"
      fill-rule="evenodd"
    /><path
      fill="#ffff00"
      d="m34.74389 57.575836l31.351204 -17.471039l0 35.183037l-31.351204 17.711998z"
      fill-rule="evenodd"
    /><path
      stroke="#000000"
      stroke-width="4.0"
      stroke-linejoin="round"
      stroke-linecap="butt"
      d="m34.74389 57.575836l31.351204 -17.471039l0 35.183037l-31.351204 17.711998z"
      fill-rule="evenodd"
    /><path
      fill="#ff0000"
      d="m43.5049 15.154302l11.362099 -11.58l12.584446 12.34764l12.584442 -12.34764l11.362099 11.58l-12.364456 12.131787l12.364456 12.131788l-11.362099 11.579998l-12.584442 -12.347641l-12.584446 12.347641l-11.362099 -11.579998l12.364452 -12.131788z"
      fill-rule="evenodd"
    /></g></svg>
