<svg version="1.1" viewBox="0.0 0.0 96.0 96.0" fill="none" stroke="none" stroke-linecap="square" stroke-miterlimit="10" xmlns:xlink="http://www.w3.org/1999/xlink" xmlns="http://www.w3.org/2000/svg"><clipPath id="g14470d71bf0_0_68.0"><path d="m0 0l96.0 0l0 96.0l-96.0 0l0 -96.0z" clip-rule="nonzero"/></clipPath><g clip-path="url(#g14470d71bf0_0_68.0)"><path fill="#000000" fill-opacity="0.0" d="m0 0l96.0 0l0 96.0l-96.0 0z" fill-rule="evenodd"/><path fill="#000000" fill-opacity="0.0" d="m30.049868 4.816273l64.91339 53.007874" fill-rule="evenodd"/><path stroke="#0000ff" stroke-width="4.0" stroke-linejoin="round" stroke-linecap="butt" d="m30.04987 4.816273l46.323948 37.827858" fill-rule="evenodd"/><path fill="#0000ff" stroke="#0000ff" stroke-width="4.0" stroke-linecap="butt" d="m72.19493 47.761593l18.238998 6.3639374l-9.881218 -16.598862z" fill-rule="evenodd"/><path fill="#999999" d="m6.3525286 19.297638l0 0c3.5224457 -4.8531485 10.24875 -5.889591 15.023622 -2.3149605l0 0c2.2929745 1.7165985 3.820074 4.288702 4.245352 7.1504765c0.42527962 2.8617764 -0.28609657 5.778803 -1.9776344 8.109365l0 0c-3.5224457 4.8531494 -10.248752 5.889591 -15.0236225 2.3149605l0 0c-4.7748713 -3.5746307 -5.7901626 -10.406694 -2.2677164 -15.259842z" fill-rule="evenodd"/><path stroke="#000000" stroke-width="4.0" stroke-linejoin="round" stroke-linecap="butt" d="m6.3525286 19.297638l0 0c3.5224457 -4.8531485 10.24875 -5.889591 15.023622 -2.3149605l0 0c2.2929745 1.7165985 3.820074 4.288702 4.245352 7.1504765c0.42527962 2.8617764 -0.28609657 5.778803 -1.9776344 8.109365l0 0c-3.5224457 4.8531494 -10.248752 5.889591 -15.0236225 2.3149605l0 0c-4.7748713 -3.5746307 -5.7901626 -10.406694 -2.2677164 -15.259842z" fill-rule="evenodd"/><path fill="#ffff00" d="m50.355206 52.257446l0 0c3.5224457 -4.8531494 10.248753 -5.889591 15.023624 -2.3149605l0 0c2.2929688 1.7165947 3.8200684 4.2887 4.2453537 7.1504745c0.4252777 2.8617783 -0.2861023 5.778801 -1.9776382 8.109364l0 0c-3.5224457 4.8531494 -10.248753 5.889595 -15.023624 2.3149643l0 0c-4.774868 -3.5746307 -5.790161 -10.406696 -2.2677155 -15.259842z" fill-rule="evenodd"/><path stroke="#000000" stroke-width="4.0" stroke-linejoin="round" stroke-linecap="butt" d="m50.355206 52.257446l0 0c3.5224457 -4.8531494 10.248753 -5.889591 15.023624 -2.3149605l0 0c2.2929688 1.7165947 3.8200684 4.2887 4.2453537 7.1504745c0.4252777 2.8617783 -0.2861023 5.778801 -1.9776382 8.109364l0 0c-3.5224457 4.8531494 -10.248753 5.889595 -15.023624 2.3149643l0 0c-4.774868 -3.5746307 -5.790161 -10.406696 -2.2677155 -15.259842z" fill-rule="evenodd"/><path fill="#ffff00" d="m28.353868 35.777542l0 0c3.5224457 -4.8531475 10.248751 -5.889591 15.0236225 -2.3149605l0 0c2.2929726 1.7165985 3.8200722 4.2887 4.24535 7.1504784c0.42528152 2.8617744 -0.28609467 5.778801 -1.9776344 8.109364l0 0c-3.5224457 4.8531494 -10.248753 5.889591 -15.0236225 2.3149605l0 0c-4.774872 -3.5746307 -5.790163 -10.406696 -2.2677155 -15.259842z" fill-rule="evenodd"/><path stroke="#000000" stroke-width="4.0" stroke-linejoin="round" stroke-linecap="butt" d="m28.353868 35.777542l0 0c3.5224457 -4.8531475 10.248751 -5.889591 15.0236225 -2.3149605l0 0c2.2929726 1.7165985 3.8200722 4.2887 4.24535 7.1504784c0.42528152 2.8617744 -0.28609467 5.778801 -1.9776344 8.109364l0 0c-3.5224457 4.8531494 -10.248753 5.889591 -15.0236225 2.3149605l0 0c-4.774872 -3.5746307 -5.790163 -10.406696 -2.2677155 -15.259842z" fill-rule="evenodd"/><path fill="#ffff00" d="m72.356544 68.73735l0 0c3.5224457 -4.8531494 10.248749 -5.889591 15.023621 -2.3149643l0 0c2.2929764 1.7165985 3.820076 4.288704 4.2453537 7.150482c0.4252777 2.8617706 -0.28609467 5.778801 -1.9776382 8.10936l0 0c-3.5224457 4.8531494 -10.248749 5.889595 -15.023621 2.3149643l0 0c-4.774872 -3.5746307 -5.790161 -10.4066925 -2.2677155 -15.259842z" fill-rule="evenodd"/><path stroke="#000000" stroke-width="4.0" stroke-linejoin="round" stroke-linecap="butt" d="m72.356544 68.73735l0 0c3.5224457 -4.8531494 10.248749 -5.889591 15.023621 -2.3149643l0 0c2.2929764 1.7165985 3.820076 4.288704 4.2453537 7.150482c0.4252777 2.8617706 -0.28609467 5.778801 -1.9776382 8.10936l0 0c-3.5224457 4.8531494 -10.248749 5.889595 -15.023621 2.3149643l0 0c-4.774872 -3.5746307 -5.790161 -10.4066925 -2.2677155 -15.259842z" fill-rule="evenodd"/></g></svg>