<svg
  version="1.1"
  viewBox="0.0 0.0 96.0 96.0"
  fill="none"
  stroke="none"
  stroke-linecap="square"
  stroke-miterlimit="10"
  xmlns:xlink="http://www.w3.org/1999/xlink"
  xmlns="http://www.w3.org/2000/svg"
><clipPath id="g14470d71bf0_0_174.0"><path
      d="m0 0l96.0 0l0 96.0l-96.0 0l0 -96.0z"
      clip-rule="nonzero"
    /></clipPath><g clip-path="url(#g14470d71bf0_0_174.0)"><path
      fill="#000000"
      fill-opacity="0.0"
      d="m0 0l96.0 0l0 96.0l-96.0 0z"
      fill-rule="evenodd"
    /><path
      fill="#000000"
      fill-opacity="0.0"
      d="m8.929779 24.418858l0 0c4.2528267 -9.77542 22.947685 -16.401985 43.30476 -15.3497715c20.357075 1.0522127 35.794895 9.443024 35.76015 19.436466l-39.968445 -0.033111572z"
      fill-rule="evenodd"
    /><path
      fill="#000000"
      fill-opacity="0.0"
      d="m8.929779 24.418858l0 0c4.2528267 -9.77542 22.947685 -16.401985 43.30476 -15.3497715c20.357075 1.0522127 35.794895 9.443024 35.76015 19.436466"
      fill-rule="evenodd"
    /><path
      stroke="#4285f4"
      stroke-width="4.0"
      stroke-linejoin="round"
      stroke-linecap="butt"
      d="m8.929779 24.418858l0 0c4.2528267 -9.77542 22.947685 -16.401985 43.30476 -15.3497715c20.357075 1.0522127 35.794895 9.443024 35.76015 19.436466"
      fill-rule="evenodd"
    /><path
      fill="#ffff00"
      d="m30.948008 38.31893l-8.112049 -2.1047745l2.2517433 -5.7080917l8.413855 -2.7031403l12.017174 -2.1021519l8.713039 -0.15221596l10.513386 2.4039593l4.658325 2.2543678l4.957512 4.6557026l-3.7555313 3.0049477l-4.8079224 1.0523872l0.45140076 44.313156l-6.760479 -3.154541l-6.608261 -1.0497665l-6.309082 -0.3018036l-6.009899 0.75057983l-6.0098953 1.5037842l-4.054714 2.2517471z"
      fill-rule="evenodd"
    /><path
      stroke="#595959"
      stroke-width="1.0"
      stroke-linejoin="round"
      stroke-linecap="butt"
      d="m30.948008 38.31893l-8.112049 -2.1047745l2.2517433 -5.7080917l8.413855 -2.7031403l12.017174 -2.1021519l8.713039 -0.15221596l10.513386 2.4039593l4.658325 2.2543678l4.957512 4.6557026l-3.7555313 3.0049477l-4.8079224 1.0523872l0.45140076 44.313156l-6.760479 -3.154541l-6.608261 -1.0497665l-6.309082 -0.3018036l-6.009899 0.75057983l-6.0098953 1.5037842l-4.054714 2.2517471z"
      fill-rule="evenodd"
    /><path
      fill="#999999"
      d="m22.470722 36.048164l-5.2892895 23.260464l-8.541014 2.5813522l-5.3346453 6.0160637l0 7.30497l2.6655781 4.7236176l5.341623 3.8702545l8.0072 1.2889023l10.937941 0.003540039l0.40123367 -47.22558z"
      fill-rule="evenodd"
    /><path
      stroke="#000000"
      stroke-width="4.0"
      stroke-linejoin="round"
      stroke-linecap="butt"
      d="m22.470722 36.048164l-5.2892895 23.260464l-8.541014 2.5813522l-5.3346453 6.0160637l0 7.30497l2.6655781 4.7236176l5.341623 3.8702545l8.0072 1.2889023l10.937941 0.003540039l0.40123367 -47.22558z"
      fill-rule="evenodd"
    /><path
      fill="#000000"
      fill-opacity="0.0"
      d="m48.020996 1.4461945l0 94.01575"
      fill-rule="evenodd"
    /><path
      stroke="#4285f4"
      stroke-width="4.0"
      stroke-linejoin="round"
      stroke-linecap="butt"
      stroke-dasharray="4.0,12.0"
      d="m48.020996 1.4461945l0 94.01575"
      fill-rule="evenodd"
    /><path
      fill="#000000"
      fill-opacity="0.0"
      d="m23.033558 35.043934l0 0c0.90877914 -5.669752 12.481178 -10.018705 26.157005 -9.829908c13.675823 0.1887989 24.527134 4.8473186 24.527134 10.529615l-25.370075 0z"
      fill-rule="evenodd"
    /><path
      fill="#000000"
      fill-opacity="0.0"
      d="m23.033558 35.043934l0 0c0.90877914 -5.669752 12.481178 -10.018705 26.157005 -9.829908c13.675823 0.1887989 24.527134 4.8473186 24.527134 10.529615"
      fill-rule="evenodd"
    /><path
      stroke="#000000"
      stroke-width="4.0"
      stroke-linejoin="round"
      stroke-linecap="butt"
      d="m23.033558 35.043934l0 0c0.90877914 -5.669752 12.481178 -10.018705 26.157005 -9.829908c13.675823 0.1887989 24.527134 4.8473186 24.527134 10.529615"
      fill-rule="evenodd"
    /><path
      fill="#ffff00"
      d="m74.022354 36.816517l5.153206 23.260468l8.321266 2.5813484l5.197403 6.0160675l0 7.30497l-2.5970001 4.7236176l-5.204193 3.8702545l-7.801193 1.2889023l-10.656532 0.003540039l-0.39091492 -47.22558z"
      fill-rule="evenodd"
    /><path
      stroke="#000000"
      stroke-width="4.0"
      stroke-linejoin="round"
      stroke-linecap="butt"
      d="m74.022354 36.816517l5.153206 23.260468l8.321266 2.5813484l5.197403 6.0160675l0 7.30497l-2.5970001 4.7236176l-5.204193 3.8702545l-7.801193 1.2889023l-10.656532 0.003540039l-0.39091492 -47.22558z"
      fill-rule="evenodd"
    /><path
      fill="#000000"
      fill-opacity="0.0"
      d="m30.701815 39.072952c0.69195175 -3.6402397 8.8406925 -6.4127846 18.403612 -6.261688c9.562923 0.15109253 17.082256 3.1711998 16.982128 6.8207893l-17.715565 -0.07067871z"
      fill-rule="evenodd"
    /><path
      fill="#000000"
      fill-opacity="0.0"
      d="m30.701815 39.072952c0.69195175 -3.6402397 8.8406925 -6.4127846 18.403612 -6.261688c9.562923 0.15109253 17.082256 3.1711998 16.982128 6.8207893"
      fill-rule="evenodd"
    /><path
      stroke="#000000"
      stroke-width="4.0"
      stroke-linejoin="round"
      stroke-linecap="butt"
      d="m30.701815 39.072952c0.69195175 -3.6402397 8.8406925 -6.4127846 18.403612 -6.261688c9.562923 0.15109253 17.082256 3.1711998 16.982128 6.8207893"
      fill-rule="evenodd"
    /><path
      fill="#000000"
      fill-opacity="0.0"
      d="m29.923271 85.35007l0 0c0.7513771 -3.635971 9.256359 -6.397827 19.217144 -6.2404633c9.960781 0.15737152 17.782856 3.1771774 17.674107 6.823303l-18.471344 -0.07369232z"
      fill-rule="evenodd"
    /><path
      fill="#000000"
      fill-opacity="0.0"
      d="m29.923271 85.35007l0 0c0.7513771 -3.635971 9.256359 -6.397827 19.217144 -6.2404633c9.960781 0.15737152 17.782856 3.1771774 17.674107 6.823303"
      fill-rule="evenodd"
    /><path
      stroke="#000000"
      stroke-width="4.0"
      stroke-linejoin="round"
      stroke-linecap="butt"
      d="m29.923271 85.35007l0 0c0.7513771 -3.635971 9.256359 -6.397827 19.217144 -6.2404633c9.960781 0.15737152 17.782856 3.1771774 17.674107 6.823303"
      fill-rule="evenodd"
    /><path
      fill="#000000"
      fill-opacity="0.0"
      d="m87.419945 26.026247l2.3622055 19.464567"
      fill-rule="evenodd"
    /><path
      stroke="#4285f4"
      stroke-width="3.0"
      stroke-linejoin="round"
      stroke-linecap="butt"
      d="m87.419945 26.026247l0.19365692 1.5956745"
      fill-rule="evenodd"
    /><path
      fill="#4285f4"
      stroke="#4285f4"
      stroke-width="3.0"
      stroke-linecap="butt"
      d="m82.69449 28.218899l6.5592957 12.918152l3.2789154 -14.112108z"
      fill-rule="evenodd"
    /></g></svg>
