<svg version="1.1" viewBox="0.0 0.0 96.0 96.0" fill="none" stroke="none" stroke-linecap="square" stroke-miterlimit="10" xmlns:xlink="http://www.w3.org/1999/xlink" xmlns="http://www.w3.org/2000/svg"><clipPath id="g14470d71bf0_0_296.0"><path d="m0 0l96.0 0l0 96.0l-96.0 0l0 -96.0z" clip-rule="nonzero"/></clipPath><g clip-path="url(#g14470d71bf0_0_296.0)"><path fill="#000000" fill-opacity="0.0" d="m0 0l96.0 0l0 96.0l-96.0 0z" fill-rule="evenodd"/><path fill="#ffff00" d="m6.9829392 24.97745l40.854782 -22.32l41.179527 22.471827l-40.855305 22.016346z" fill-rule="evenodd"/><path stroke="#000000" stroke-width="4.0" stroke-linejoin="round" stroke-linecap="butt" d="m6.9829392 24.97745l40.854782 -22.32l41.179527 22.471827l-40.855305 22.016346z" fill-rule="evenodd"/><path fill="#ffff00" d="m6.9829392 25.144941l0 44.568l40.867985 22.132416l0 -44.568z" fill-rule="evenodd"/><path stroke="#000000" stroke-width="4.0" stroke-linejoin="round" stroke-linecap="butt" d="m6.9829392 25.144941l0 44.568l40.867985 22.132416l0 -44.568z" fill-rule="evenodd"/><path fill="#ffff00" d="m48.137245 47.16129l40.8553 -22.016348l0 44.33634l-40.8553 22.32z" fill-rule="evenodd"/><path stroke="#000000" stroke-width="4.0" stroke-linejoin="round" stroke-linecap="butt" d="m48.137245 47.16129l40.8553 -22.016348l0 44.33634l-40.8553 22.32z" fill-rule="evenodd"/></g></svg>