<svg
  version="1.1"
  viewBox="0.0 0.0 96.0 96.0"
  fill="none"
  stroke="none"
  stroke-linecap="square"
  stroke-miterlimit="10"
  xmlns:xlink="http://www.w3.org/1999/xlink"
  xmlns="http://www.w3.org/2000/svg"
><clipPath id="g14470d71bf0_0_423.0"><path
      d="m0 0l96.0 0l0 96.0l-96.0 0l0 -96.0z"
      clip-rule="nonzero"
    /></clipPath><g clip-path="url(#g14470d71bf0_0_423.0)"><path
      fill="#000000"
      fill-opacity="0.0"
      d="m0 0l96.0 0l0 96.0l-96.0 0z"
      fill-rule="evenodd"
    /><path
      fill="#999999"
      d="m5.4463215 33.23629l33.942795 -20.016003l34.212597 20.152157l-33.94323 19.74369z"
      fill-rule="evenodd"
    /><path
      stroke="#000000"
      stroke-width="4.0"
      stroke-linejoin="round"
      stroke-linecap="butt"
      d="m5.4463215 33.23629l33.942795 -20.016003l34.212597 20.152157l-33.94323 19.74369z"
      fill-rule="evenodd"
    /><path
      fill="#999999"
      d="m5.4463215 33.3682l0 39.888004l33.901146 19.808334l0 -39.888004z"
      fill-rule="evenodd"
    /><path
      stroke="#000000"
      stroke-width="4.0"
      stroke-linejoin="round"
      stroke-linecap="butt"
      d="m5.4463215 33.3682l0 39.888004l33.901146 19.808334l0 -39.888004z"
      fill-rule="evenodd"
    /><path
      fill="#999999"
      d="m39.61523 53.11189l33.943233 -19.74369l0 39.759693l-33.943233 20.015999z"
      fill-rule="evenodd"
    /><path
      stroke="#000000"
      stroke-width="4.0"
      stroke-linejoin="round"
      stroke-linecap="butt"
      d="m39.61523 53.11189l33.943233 -19.74369l0 39.759693l-33.943233 20.015999z"
      fill-rule="evenodd"
    /><path
      fill="#000000"
      fill-opacity="0.0"
      d="m85.441765 57.06707l0.28347015 -46.519684"
      fill-rule="evenodd"
    /><path
      stroke="#4285f4"
      stroke-width="4.0"
      stroke-linejoin="round"
      stroke-linecap="butt"
      d="m85.588005 33.067513l0.13722229 -22.520128"
      fill-rule="evenodd"
    /><path
      fill="#4285f4"
      stroke="#4285f4"
      stroke-width="4.0"
      stroke-linecap="butt"
      d="m78.9812 33.027256l6.496193 18.19231l6.717415 -18.111794z"
      fill-rule="evenodd"
    /><path
      fill="#ffffc1"
      d="m19.228346 33.519684l20.028872 -11.6167965l19.225723 11.08399l-19.359581 11.881889z"
      fill-rule="evenodd"
    /><path
      stroke="#000000"
      stroke-width="2.0"
      stroke-linejoin="round"
      stroke-linecap="butt"
      d="m19.228346 33.519684l20.028872 -11.6167965l19.225723 11.08399l-19.359581 11.881889z"
      fill-rule="evenodd"
    /><path
      fill="#000000"
      fill-opacity="0.0"
      d="m39.34646 23.506561l-0.09449005 10.425198"
      fill-rule="evenodd"
    /><path
      stroke="#000000"
      stroke-width="2.0"
      stroke-linejoin="round"
      stroke-linecap="butt"
      d="m39.34646 23.506561l-0.09449005 10.425198"
      fill-rule="evenodd"
    /><path
      fill="#000000"
      fill-opacity="0.0"
      d="m39.38845 32.451443l-10.141731 6.1417313"
      fill-rule="evenodd"
    /><path
      stroke="#000000"
      stroke-width="2.0"
      stroke-linejoin="round"
      stroke-linecap="butt"
      d="m39.38845 32.451443l-10.141731 6.1417313"
      fill-rule="evenodd"
    /><path
      fill="#000000"
      fill-opacity="0.0"
      d="m39.614174 32.18635l10.047245 5.889763"
      fill-rule="evenodd"
    /><path
      stroke="#000000"
      stroke-width="2.0"
      stroke-linejoin="round"
      stroke-linecap="butt"
      d="m39.614174 32.18635l10.047245 5.889763"
      fill-rule="evenodd"
    /></g></svg>
