<svg version="1.1" viewBox="0.0 0.0 96.0 96.0" fill="none" stroke="none" stroke-linecap="square" stroke-miterlimit="10" xmlns:xlink="http://www.w3.org/1999/xlink" xmlns="http://www.w3.org/2000/svg"><clipPath id="p.0"><path d="m0 0l96.0 0l0 96.0l-96.0 0l0 -96.0z" clip-rule="nonzero"/></clipPath><g clip-path="url(#p.0)"><path fill="#000000" fill-opacity="0.0" d="m0 0l96.0 0l0 96.0l-96.0 0z" fill-rule="evenodd"/><g mask="url(#mask-p.1)"><use xlink:href="#p.1" transform="matrix(1.0 0.0 0.0 -1.0 0.0 190.85564251968506)"/></g><defs><mask id="mask-p.1" maskUnits="userSpaceOnUse" x="2.661417322834646" y="97.42782125984253" width="58.70866141732284" height="53.03937007874016"><linearGradient gradientUnits="userSpaceOnUse" id="gradient-p.1" x1="2.6614173236039815" y1="97.42760873507078" x2="2.661380843079529" y2="107.50512930314977"><stop offset="0%" stop-color="#ffffff" stop-opacity="1.0"/><stop offset="100%" stop-color="#ffffff" stop-opacity="0.0"/></linearGradient><rect fill="url(#gradient-p.1)" x="2.661417322834646" y="97.42782125984253" width="58.70866141732284" height="53.03937007874016"/></mask></defs><g id="p.1"><path fill="#ffff00" d="m4.6614175 54.648293l42.44882 0l0 36.779526l-42.44882 0z" fill-rule="evenodd"/><path fill="#cbcb00" d="m47.110237 54.648293l12.259842 -12.259842l0 36.779526l-12.259842 12.259842z" fill-rule="evenodd"/><path fill="#ffff33" d="m4.6614175 54.648293l12.259842 -12.259842l42.448822 0l-12.259842 12.259842z" fill-rule="evenodd"/><path fill="#000000" fill-opacity="0.0" d="m4.6614175 54.648293l12.259842 -12.259842l42.448822 0l0 36.779526l-12.259842 12.259842l-42.44882 0zm0 0l42.44882 0l12.259842 -12.259842m-12.259842 12.259842l0 36.779526" fill-rule="evenodd"/><path stroke="#000000" stroke-width="4.0" stroke-linejoin="round" stroke-linecap="butt" d="m4.6614175 54.648293l12.259842 -12.259842l42.448822 0l0 36.779526l-12.259842 12.259842l-42.44882 0zm0 0l42.44882 0l12.259842 -12.259842m-12.259842 12.259842l0 36.779526" fill-rule="evenodd"/></g><path fill="#0000ff" d="m83.78733 35.74242l3.3676224 7.2866783l0 0c4.7354965 10.2463875 0.27565002 22.408035 -9.961342 27.163803l0 0l4.2154846 9.121231l-23.69946 -5.377983l11.229115 -21.604633l4.2154922 9.121227l0 0l0 0c5.41436 -2.515335 7.773178 -8.947651 5.26857 -14.3669815l-3.36763 -7.2866783z" fill-rule="evenodd"/><path stroke="#0000ff" stroke-width="1.0" stroke-linejoin="round" stroke-linecap="butt" d="m83.78733 35.74242l3.3676224 7.2866783l0 0c4.7354965 10.2463875 0.27565002 22.408035 -9.961342 27.163803l0 0l4.2154846 9.121231l-23.69946 -5.377983l11.229115 -21.604633l4.2154922 9.121227l0 0l0 0c5.41436 -2.515335 7.773178 -8.947651 5.26857 -14.3669815l-3.36763 -7.2866783z" fill-rule="evenodd"/><path fill="#999999" d="m54.238827 21.821943l3.3166275 -2.291874l1.2669373 -3.708126l4.099674 -1.039505E-4l3.31678 -2.2916555l3.31678 2.2916555l4.0996704 1.039505E-4l1.2669373 3.708126l3.3166275 2.291874l-1.2667999 3.7082405l1.2667999 3.7082405l-3.3166275 2.291872l-1.2669373 3.708126l-4.0996704 1.0681152E-4l-3.31678 2.2916527l-3.31678 -2.2916527l-4.099674 -1.0681152E-4l-1.2669373 -3.708126l-3.3166275 -2.291872l1.2667999 -3.7082405z" fill-rule="evenodd"/><path stroke="#000000" stroke-width="2.0" stroke-linejoin="round" stroke-linecap="butt" d="m54.238827 21.821943l3.3166275 -2.291874l1.2669373 -3.708126l4.099674 -1.039505E-4l3.31678 -2.2916555l3.31678 2.2916555l4.0996704 1.039505E-4l1.2669373 3.708126l3.3166275 2.291874l-1.2667999 3.7082405l1.2667999 3.7082405l-3.3166275 2.291872l-1.2669373 3.708126l-4.0996704 1.0681152E-4l-3.31678 2.2916527l-3.31678 -2.2916527l-4.099674 -1.0681152E-4l-1.2669373 -3.708126l-3.3166275 -2.291872l1.2667999 -3.7082405z" fill-rule="evenodd"/><path fill="#999999" d="m73.65353 7.07274l2.5201187 -1.70537l0.9626694 -2.7591968l3.1151123 -7.772446E-5l2.5202255 -1.7052083l2.5202332 1.7052083l3.1151047 7.772446E-5l0.9626694 2.7591968l2.5201187 1.70537l-0.9625702 2.7592816l0.9625702 2.7592802l-2.5201187 1.7053709l-0.9626694 2.7591972l-3.1151047 7.6293945E-5l-2.5202332 1.7052078l-2.5202255 -1.7052078l-3.1151123 -7.6293945E-5l-0.9626694 -2.7591972l-2.5201187 -1.7053709l0.9625702 -2.7592802z" fill-rule="evenodd"/><path stroke="#000000" stroke-width="2.0" stroke-linejoin="round" stroke-linecap="butt" d="m73.65353 7.07274l2.5201187 -1.70537l0.9626694 -2.7591968l3.1151123 -7.772446E-5l2.5202255 -1.7052083l2.5202332 1.7052083l3.1151047 7.772446E-5l0.9626694 2.7591968l2.5201187 1.70537l-0.9625702 2.7592816l0.9625702 2.7592802l-2.5201187 1.7053709l-0.9626694 2.7591972l-3.1151047 7.6293945E-5l-2.5202332 1.7052078l-2.5202255 -1.7052078l-3.1151123 -7.6293945E-5l-0.9626694 -2.7591972l-2.5201187 -1.7053709l0.9625702 -2.7592802z" fill-rule="evenodd"/><path fill="#000000" fill-opacity="0.0" d="m62.93176 25.54593l0 0c0 -1.7481766 1.4806328 -3.1653538 3.307087 -3.1653538l0 0c0.87709045 0 1.7182617 0.33349228 2.3384628 0.9271107c0.6202011 0.5936184 0.9686203 1.3987389 0.9686203 2.238243l0 0c0 1.7481785 -1.480629 3.1653557 -3.3070831 3.1653557l0 0c-1.8264542 0 -3.307087 -1.4171772 -3.307087 -3.1653557z" fill-rule="evenodd"/><path stroke="#000000" stroke-width="2.0" stroke-linejoin="round" stroke-linecap="butt" d="m62.93176 25.54593l0 0c0 -1.7481766 1.4806328 -3.1653538 3.307087 -3.1653538l0 0c0.87709045 0 1.7182617 0.33349228 2.3384628 0.9271107c0.6202011 0.5936184 0.9686203 1.3987389 0.9686203 2.238243l0 0c0 1.7481785 -1.480629 3.1653557 -3.3070831 3.1653557l0 0c-1.8264542 0 -3.307087 -1.4171772 -3.307087 -3.1653557z" fill-rule="evenodd"/><path fill="#000000" fill-opacity="0.0" d="m79.46457 9.863518l0 0c0 -1.7481775 1.480629 -3.1653547 3.3070831 -3.1653547l0 0c0.8770981 0 1.7182693 0.3334918 2.3384628 0.9271107c0.6202011 0.59361935 0.9686279 1.3987398 0.9686279 2.238244l0 0c0 1.7481766 -1.4806366 3.1653538 -3.3070908 3.1653538l0 0c-1.8264542 0 -3.3070831 -1.4171772 -3.3070831 -3.1653538z" fill-rule="evenodd"/><path stroke="#000000" stroke-width="2.0" stroke-linejoin="round" stroke-linecap="butt" d="m79.46457 9.863518l0 0c0 -1.7481775 1.480629 -3.1653547 3.3070831 -3.1653547l0 0c0.8770981 0 1.7182693 0.3334918 2.3384628 0.9271107c0.6202011 0.59361935 0.9686279 1.3987398 0.9686279 2.238244l0 0c0 1.7481766 -1.4806366 3.1653538 -3.3070908 3.1653538l0 0c-1.8264542 0 -3.3070831 -1.4171772 -3.3070831 -3.1653538z" fill-rule="evenodd"/></g></svg>