<svg version="1.1" viewBox="0.0 0.0 96.0 96.0" fill="none" stroke="none" stroke-linecap="square" stroke-miterlimit="10" xmlns:xlink="http://www.w3.org/1999/xlink" xmlns="http://www.w3.org/2000/svg"><clipPath id="g14470d71bf0_0_85.0"><path d="m0 0l96.0 0l0 96.0l-96.0 0l0 -96.0z" clip-rule="nonzero"/></clipPath><g clip-path="url(#g14470d71bf0_0_85.0)"><path fill="#000000" fill-opacity="0.0" d="m0 0l96.0 0l0 96.0l-96.0 0z" fill-rule="evenodd"/><path fill="#999999" d="m2.2572181 10.81842l91.18111 0l0 81.92126l-91.18111 0z" fill-rule="evenodd"/><path stroke="#000000" stroke-width="4.0" stroke-linejoin="round" stroke-linecap="butt" d="m2.2572181 10.81842l91.18111 0l0 81.92126l-91.18111 0z" fill-rule="evenodd"/><path fill="#ffff00" d="m72.66486 10.773005l-10.994461 18.614174l-27.050446 0l-10.994463 -18.614174z" fill-rule="evenodd"/><path stroke="#000000" stroke-width="4.0" stroke-linejoin="round" stroke-linecap="butt" d="m72.66486 10.773005l-10.994461 18.614174l-27.050446 0l-10.994463 -18.614174z" fill-rule="evenodd"/><path fill="#ffff00" d="m35.70757 29.387178l24.850391 0l0 36.09449l-24.850391 0z" fill-rule="evenodd"/><path stroke="#000000" stroke-width="4.0" stroke-linejoin="round" stroke-linecap="butt" d="m35.70757 29.387178l24.850391 0l0 36.09449l-24.850391 0z" fill-rule="evenodd"/><path fill="#ffff00" d="m60.53345 65.49693l-12.377953 12.0l-12.377953 -12.0z" fill-rule="evenodd"/><path stroke="#000000" stroke-width="4.0" stroke-linejoin="round" stroke-linecap="butt" d="m60.53345 65.49693l-12.377953 12.0l-12.377953 -12.0z" fill-rule="evenodd"/><path fill="#000000" fill-opacity="0.0" d="m48.061012 0.20559527l0.09448624 77.291336" fill-rule="evenodd"/><path stroke="#00ffff" stroke-width="4.0" stroke-linejoin="round" stroke-linecap="butt" stroke-dasharray="16.0,12.0" d="m48.061012 0.20559527l0.09448624 77.291336" fill-rule="evenodd"/></g></svg>