<svg
  version="1.1"
  viewBox="0.0 0.0 96.0 96.0"
  fill="none"
  stroke="none"
  stroke-linecap="square"
  stroke-miterlimit="10"
  xmlns:xlink="http://www.w3.org/1999/xlink"
  xmlns="http://www.w3.org/2000/svg"
><clipPath id="g14470d71bf0_0_396.0"><path
      d="m0 0l96.0 0l0 96.0l-96.0 0l0 -96.0z"
      clip-rule="nonzero"
    /></clipPath><g clip-path="url(#g14470d71bf0_0_396.0)"><path
      fill="#000000"
      fill-opacity="0.0"
      d="m0 0l96.0 0l0 96.0l-96.0 0z"
      fill-rule="evenodd"
    /><path
      fill="#999999"
      d="m2.2572181 10.81842l91.18111 0l0 81.92126l-91.18111 0z"
      fill-rule="evenodd"
    /><path
      stroke="#000000"
      stroke-width="4.0"
      stroke-linejoin="round"
      stroke-linecap="butt"
      d="m2.2572181 10.81842l91.18111 0l0 81.92126l-91.18111 0z"
      fill-rule="evenodd"
    /><path
      fill="#ffff00"
      d="m35.70866 10.819543l24.850395 0l0 54.708664l-24.850395 0z"
      fill-rule="evenodd"
    /><path
      stroke="#000000"
      stroke-width="4.0"
      stroke-linejoin="round"
      stroke-linecap="butt"
      d="m35.70866 10.819543l24.850395 0l0 54.708664l-24.850395 0z"
      fill-rule="evenodd"
    /><path
      fill="#ffff00"
      d="m60.53345 65.49693l-12.377953 12.0l-12.377953 -12.0z"
      fill-rule="evenodd"
    /><path
      stroke="#000000"
      stroke-width="4.0"
      stroke-linejoin="round"
      stroke-linecap="butt"
      d="m60.53345 65.49693l-12.377953 12.0l-12.377953 -12.0z"
      fill-rule="evenodd"
    /><path
      fill="#000000"
      fill-opacity="0.0"
      d="m48.061012 0.20559527l0.09448624 77.291336"
      fill-rule="evenodd"
    /><path
      stroke="#00ffff"
      stroke-width="4.0"
      stroke-linejoin="round"
      stroke-linecap="butt"
      stroke-dasharray="16.0,12.0"
      d="m48.061012 0.20559527l0.09448624 77.291336"
      fill-rule="evenodd"
    /><path
      fill="#000000"
      fill-opacity="0.0"
      d="m40.304462 10.425197l0 51.212597"
      fill-rule="evenodd"
    /><path
      stroke="#000000"
      stroke-width="2.0"
      stroke-linejoin="round"
      stroke-linecap="butt"
      stroke-dasharray="2.0,6.0"
      d="m40.304462 10.425197l0 51.212597"
      fill-rule="evenodd"
    /><path
      fill="#000000"
      fill-opacity="0.0"
      d="m55.85302 10.425197l0 51.212597"
      fill-rule="evenodd"
    /><path
      stroke="#000000"
      stroke-width="2.0"
      stroke-linejoin="round"
      stroke-linecap="butt"
      stroke-dasharray="2.0,6.0"
      d="m55.85302 10.425197l0 51.212597"
      fill-rule="evenodd"
    /></g></svg>
