<svg version="1.1" viewBox="0.0 0.0 96.0 96.0" fill="none" stroke="none" stroke-linecap="square" stroke-miterlimit="10" xmlns:xlink="http://www.w3.org/1999/xlink" xmlns="http://www.w3.org/2000/svg"><clipPath id="g14470d71bf0_0_319.0"><path d="m0 0l96.0 0l0 96.0l-96.0 0l0 -96.0z" clip-rule="nonzero"/></clipPath><g clip-path="url(#g14470d71bf0_0_319.0)"><path fill="#000000" fill-opacity="0.0" d="m0 0l96.0 0l0 96.0l-96.0 0z" fill-rule="evenodd"/><path fill="#b7b7b7" d="m45.44357 41.49475l21.932186 12.917343l0 10.665596l-21.932186 -12.465942z" fill-rule="evenodd"/><path stroke="#000000" stroke-width="4.0" stroke-linejoin="round" stroke-linecap="butt" d="m45.44357 41.49475l21.932186 12.917343l0 10.665596l-21.932186 -12.465942z" fill-rule="evenodd"/><path fill="#b7b7b7" d="m45.595802 41.49409l11.715363 -6.6108894l21.93219 12.169388l-11.565773 7.2092514z" fill-rule="evenodd"/><path stroke="#000000" stroke-width="4.0" stroke-linejoin="round" stroke-linecap="butt" d="m45.595802 41.49409l11.715363 -6.6108894l21.93219 12.169388l-11.565773 7.2092514z" fill-rule="evenodd"/><path fill="#b7b7b7" d="m57.614174 34.731945l0 -13.368744l6.1594887 -3.154539l10.363796 5.256691l5.408905 10.366419l-0.14958954 13.066933z" fill-rule="evenodd"/><path stroke="#000000" stroke-width="4.0" stroke-linejoin="round" stroke-linecap="butt" d="m57.614174 34.731945l0 -13.368744l6.1594887 -3.154539l10.363796 5.256691l5.408905 10.366419l-0.14958954 13.066933z" fill-rule="evenodd"/><path fill="#b7b7b7" d="m63.923885 18.0558l11.117001 -6.30908l10.064606 5.2593155l-11.266586 6.30908z" fill-rule="evenodd"/><path stroke="#000000" stroke-width="4.0" stroke-linejoin="round" stroke-linecap="butt" d="m63.923885 18.0558l11.117001 -6.30908l10.064606 5.2593155l-11.266586 6.30908z" fill-rule="evenodd"/><path fill="#b7b7b7" d="m85.25542 17.305775l6.0098953 9.765427l0 24.336147l-24.036964 13.518333l0.14958954 -10.815189l12.019798 -7.511059l0.14958954 -13.069561l-5.1071014 -10.214201z" fill-rule="evenodd"/><path stroke="#000000" stroke-width="4.0" stroke-linejoin="round" stroke-linecap="butt" d="m85.25542 17.305775l6.0098953 9.765427l0 24.336147l-24.036964 13.518333l0.14958954 -10.815189l12.019798 -7.511059l0.14958954 -13.069561l-5.1071014 -10.214201z" fill-rule="evenodd"/><path fill="#000000" fill-opacity="0.0" d="m79.698166 33.681103l11.527557 -6.4251976" fill-rule="evenodd"/><path stroke="#000000" stroke-width="4.0" stroke-linejoin="round" stroke-linecap="butt" d="m79.698166 33.681103l11.527557 -6.4251976" fill-rule="evenodd"/><path fill="#000000" fill-opacity="0.0" d="m23.75328 2.527559l51.968506 29.459906l0 57.563713l-51.968506 -29.459904z" fill-rule="evenodd"/><path stroke="#00ffff" stroke-width="4.0" stroke-linejoin="round" stroke-linecap="butt" d="m23.75328 2.527559l51.968506 29.459906l0 57.563713l-51.968506 -29.459904z" fill-rule="evenodd"/><path fill="#ffff00" d="m4.7322836 79.20074l0 -23.585567l5.555875 -3.154541l9.915018 5.408909l5.7080917 10.064613l0 23.43335z" fill-rule="evenodd"/><path stroke="#000000" stroke-width="4.0" stroke-linejoin="round" stroke-linecap="butt" d="m4.7322836 79.20074l0 -23.585567l5.555875 -3.154541l9.915018 5.408909l5.7080917 10.064613l0 23.43335z" fill-rule="evenodd"/><path fill="#ffff00" d="m10.288714 52.459938l11.266589 -6.9100685l10.064611 5.860306l-11.416182 6.4586716z" fill-rule="evenodd"/><path stroke="#000000" stroke-width="4.0" stroke-linejoin="round" stroke-linecap="butt" d="m10.288714 52.459938l11.266589 -6.9100685l10.064611 5.860306l-11.416182 6.4586716z" fill-rule="evenodd"/><path fill="#ffff00" d="m20.506561 57.869465l5.256693 9.91502l11.568396 -6.760483l-5.5584984 -9.31403z" fill-rule="evenodd"/><path stroke="#000000" stroke-width="4.0" stroke-linejoin="round" stroke-linecap="butt" d="m20.506561 57.869465l5.256693 9.91502l11.568396 -6.760483l-5.5584984 -9.31403z" fill-rule="evenodd"/><path fill="#ffff00" d="m26.065601 67.63319l11.26659 -6.7578583l0.14958954 12.917343l11.26659 -6.608261l0 10.064606l-22.834986 14.119324z" fill-rule="evenodd"/><path stroke="#000000" stroke-width="4.0" stroke-linejoin="round" stroke-linecap="butt" d="m26.065601 67.63319l11.26659 -6.7578583l0.14958954 12.917343l11.26659 -6.608261l0 10.064606l-22.834986 14.119324z" fill-rule="evenodd"/><path fill="#ffff00" d="m48.67869 67.32745l-10.967407 -6.309082l0.07086182 12.775627z" fill-rule="evenodd"/><path stroke="#000000" stroke-width="4.0" stroke-linejoin="round" stroke-linecap="butt" d="m48.67869 67.32745l-10.967407 -6.309082l0.07086182 12.775627z" fill-rule="evenodd"/><path fill="#000000" fill-opacity="0.0" d="m30.199474 17.30738l17.102364 9.732283" fill-rule="evenodd"/><path stroke="#00ffff" stroke-width="2.0" stroke-linejoin="round" stroke-linecap="butt" d="m30.199474 17.30738l17.102364 9.732283" fill-rule="evenodd"/><path fill="#000000" fill-opacity="0.0" d="m30.199474 22.640715l17.102364 9.732283" fill-rule="evenodd"/><path stroke="#00ffff" stroke-width="2.0" stroke-linejoin="round" stroke-linecap="butt" d="m30.199474 22.640715l17.102364 9.732283" fill-rule="evenodd"/><path fill="#000000" fill-opacity="0.0" d="m53.854332 64.063286l17.102364 9.732285" fill-rule="evenodd"/><path stroke="#00ffff" stroke-width="2.0" stroke-linejoin="round" stroke-linecap="butt" d="m53.854332 64.063286l17.102364 9.732285" fill-rule="evenodd"/><path fill="#000000" fill-opacity="0.0" d="m53.855644 69.51473l17.102364 9.732285" fill-rule="evenodd"/><path stroke="#00ffff" stroke-width="2.0" stroke-linejoin="round" stroke-linecap="butt" d="m53.855644 69.51473l17.102364 9.732285" fill-rule="evenodd"/></g></svg>