<svg
  version="1.1"
  viewBox="0.0 0.0 96.0 96.0"
  fill="none"
  stroke="none"
  stroke-linecap="square"
  stroke-miterlimit="10"
  xmlns:xlink="http://www.w3.org/1999/xlink"
  xmlns="http://www.w3.org/2000/svg"
><clipPath id="g18c39757728_0_0.0"><path
      d="m0 0l96.0 0l0 96.0l-96.0 0l0 -96.0z"
      clip-rule="nonzero"
    /></clipPath><g clip-path="url(#g18c39757728_0_0.0)"><path
      fill="#000000"
      fill-opacity="0.0"
      d="m0 0l96.0 0l0 96.0l-96.0 0z"
      fill-rule="evenodd"
    /><path
      fill="#000000"
      fill-opacity="0.0"
      d="m25.428043 29.994116l0 -29.984253"
      fill-rule="evenodd"
    /><path
      stroke="#00ff00"
      stroke-width="2.0"
      stroke-linejoin="round"
      stroke-linecap="butt"
      d="m25.428045 29.994116l0 -17.984253"
      fill-rule="evenodd"
    /><path
      fill="#00ff00"
      stroke="#00ff00"
      stroke-width="2.0"
      stroke-linecap="butt"
      d="m28.73151 12.009863l-3.303465 -9.076195l-3.303465 9.076195z"
      fill-rule="evenodd"
    /><path
      fill="#000000"
      fill-opacity="0.0"
      d="m25.448065 29.994116l-25.448818 14.708662"
      fill-rule="evenodd"
    /><path
      stroke="#4285f4"
      stroke-width="2.0"
      stroke-linejoin="round"
      stroke-linecap="butt"
      d="m25.448065 29.994116l-15.059305 8.703829"
      fill-rule="evenodd"
    /><path
      fill="#4285f4"
      stroke="#4285f4"
      stroke-width="2.0"
      stroke-linecap="butt"
      d="m8.735698 35.83783l-6.205043 7.401867l9.511168 -1.681633z"
      fill-rule="evenodd"
    /><path
      fill="#000000"
      fill-opacity="0.0"
      d="m25.448065 29.994116l25.574804 14.708662"
      fill-rule="evenodd"
    /><path
      stroke="#ff0000"
      stroke-width="2.0"
      stroke-linejoin="round"
      stroke-linecap="butt"
      d="m25.448065 29.994116l15.172483 8.726046"
      fill-rule="evenodd"
    /><path
      fill="#ff0000"
      stroke="#ff0000"
      stroke-width="2.0"
      stroke-linecap="butt"
      d="m38.9736 41.5838l9.51474 1.6613083l-6.2208443 -7.388592z"
      fill-rule="evenodd"
    /><path
      fill="#ffffff"
      d="m19.636333 31.978643l0 0c0 -3.1136684 2.594633 -5.6377945 5.7952747 -5.6377945l0 0c1.5370026 0 3.011053 0.5939789 4.0978794 1.6512718c1.0868244 1.057291 1.6973953 2.4912872 1.6973953 3.9865227l0 0c0 3.1136684 -2.594633 5.6377964 -5.7952747 5.6377964l0 0c-3.2006416 0 -5.7952747 -2.524128 -5.7952747 -5.6377964z"
      fill-rule="evenodd"
    /><path
      stroke="#000000"
      stroke-width="2.0"
      stroke-linejoin="round"
      stroke-linecap="butt"
      d="m19.636333 31.978643l0 0c0 -3.1136684 2.594633 -5.6377945 5.7952747 -5.6377945l0 0c1.5370026 0 3.011053 0.5939789 4.0978794 1.6512718c1.0868244 1.057291 1.6973953 2.4912872 1.6973953 3.9865227l0 0c0 3.1136684 -2.594633 5.6377964 -5.7952747 5.6377964l0 0c-3.2006416 0 -5.7952747 -2.524128 -5.7952747 -5.6377964z"
      fill-rule="evenodd"
    /><path
      fill="#000000"
      fill-opacity="0.0"
      d="m76.3477 68.52248l19.653542 -22.960632"
      fill-rule="evenodd"
    /><path
      stroke="#00ff00"
      stroke-width="2.0"
      stroke-linejoin="round"
      stroke-linecap="butt"
      d="m76.347694 68.52248l11.850235 -13.844261"
      fill-rule="evenodd"
    /><path
      fill="#00ff00"
      stroke="#00ff00"
      stroke-width="2.0"
      stroke-linecap="butt"
      d="m90.70756 56.82638l3.3924026 -9.043331l-8.411667 4.7470016z"
      fill-rule="evenodd"
    /><path
      fill="#000000"
      fill-opacity="0.0"
      d="m76.36303 68.535126l-29.102364 -4.7873993"
      fill-rule="evenodd"
    /><path
      stroke="#4285f4"
      stroke-width="2.0"
      stroke-linejoin="round"
      stroke-linecap="butt"
      d="m76.36302 68.53513l-17.261501 -2.8395615"
      fill-rule="evenodd"
    /><path
      fill="#4285f4"
      stroke="#4285f4"
      stroke-width="2.0"
      stroke-linecap="butt"
      d="m59.63774 62.43592l-9.49205 1.7863998l8.419609 4.73291z"
      fill-rule="evenodd"
    /><path
      fill="#000000"
      fill-opacity="0.0"
      d="m76.36303 68.535126l9.921257 27.46457"
      fill-rule="evenodd"
    /><path
      stroke="#ff0000"
      stroke-width="2.0"
      stroke-linejoin="round"
      stroke-linecap="butt"
      d="m76.36302 68.53513l5.8442535 16.178375"
      fill-rule="evenodd"
    /><path
      fill="#ff0000"
      stroke="#ff0000"
      stroke-width="2.0"
      stroke-linecap="butt"
      d="m79.10032 85.83586l6.190605 7.413948l0.02331543 -9.658661z"
      fill-rule="evenodd"
    /><path
      fill="#000000"
      fill-opacity="0.0"
      d="m38.172707 16.476473l0 0c10.376507 -4.890807 22.219833 -4.2994995 30.92688 1.5441017c8.707054 5.843601 12.904556 16.017847 10.96109 26.568354l-30.317722 -2.307602z"
      fill-rule="evenodd"
    /><path
      fill="#000000"
      fill-opacity="0.0"
      d="m38.172707 16.476473l0 0c10.376507 -4.890807 22.219833 -4.2994995 30.92688 1.5441017c8.707054 5.843601 12.904556 16.017847 10.96109 26.568354"
      fill-rule="evenodd"
    /><path
      stroke="#4285f4"
      stroke-width="4.0"
      stroke-linejoin="round"
      stroke-linecap="butt"
      d="m38.172707 16.476473l0 0c10.376507 -4.890807 22.21983 -4.2994995 30.92688 1.5441017c2.1767654 1.4608994 4.071686 3.1924667 5.6592636 5.13291c0.7937851 0.97022057 1.5107346 1.9926624 2.1476746 3.0596008c0.07961273 0.13336563 0.15798187 0.26742935 0.23509216 0.4021721l0.10887909 0.19438553"
      fill-rule="evenodd"
    /><path
      fill="#4285f4"
      stroke="#4285f4"
      stroke-width="4.0"
      stroke-linecap="butt"
      d="m72.88162 27.500183l6.266121 11.3128395l2.4716263 -12.69392z"
      fill-rule="evenodd"
    /><path
      fill="#ffffff"
      d="m70.56654 68.96606l0 0c0 -3.1136703 2.594635 -5.6377983 5.7952805 -5.6377983l0 0c1.5370026 0 3.011055 0.5939827 4.0978775 1.6512718c1.0868225 1.0572968 1.6973953 2.4912872 1.6973953 3.9865265l0 0c0 3.1136627 -2.594635 5.6377945 -5.795273 5.6377945l0 0c-3.2006454 0 -5.7952805 -2.5241318 -5.7952805 -5.6377945z"
      fill-rule="evenodd"
    /><path
      stroke="#000000"
      stroke-width="2.0"
      stroke-linejoin="round"
      stroke-linecap="butt"
      d="m70.56654 68.96606l0 0c0 -3.1136703 2.594635 -5.6377983 5.7952805 -5.6377983l0 0c1.5370026 0 3.011055 0.5939827 4.0978775 1.6512718c1.0868225 1.0572968 1.6973953 2.4912872 1.6973953 3.9865265l0 0c0 3.1136627 -2.594635 5.6377945 -5.795273 5.6377945l0 0c-3.2006454 0 -5.7952805 -2.5241318 -5.7952805 -5.6377945z"
      fill-rule="evenodd"
    /></g></svg>
