<svg version="1.1" viewBox="0.0 0.0 96.0 96.0" fill="none" stroke="none" stroke-linecap="square" stroke-miterlimit="10" xmlns:xlink="http://www.w3.org/1999/xlink" xmlns="http://www.w3.org/2000/svg"><clipPath id="g14470d71bf0_0_60.0"><path d="m0 0l96.0 0l0 96.0l-96.0 0l0 -96.0z" clip-rule="nonzero"/></clipPath><g clip-path="url(#g14470d71bf0_0_60.0)"><path fill="#000000" fill-opacity="0.0" d="m0 0l96.0 0l0 96.0l-96.0 0z" fill-rule="evenodd"/><path fill="#000000" fill-opacity="0.0" d="m14.779805 48.369053l0 0c0 -17.768784 14.446748 -32.17323 32.267715 -32.17323l0 0c8.557934 0 16.76535 3.3896694 22.816723 9.423321c6.0513687 6.0336494 9.450996 14.217037 9.450996 22.749908l0 0c0 17.76878 -14.446747 32.17323 -32.26772 32.17323l0 0c-17.820967 0 -32.267715 -14.404449 -32.267715 -32.17323z" fill-rule="evenodd"/><path stroke="#0000ff" stroke-width="4.0" stroke-linejoin="round" stroke-linecap="butt" d="m14.779805 48.369053l0 0c0 -17.768784 14.446748 -32.17323 32.267715 -32.17323l0 0c8.557934 0 16.76535 3.3896694 22.816723 9.423321c6.0513687 6.0336494 9.450996 14.217037 9.450996 22.749908l0 0c0 17.76878 -14.446747 32.17323 -32.26772 32.17323l0 0c-17.820967 0 -32.267715 -14.404449 -32.267715 -32.17323z" fill-rule="evenodd"/><path fill="#999999" d="m6.531496 48.37278l0 0c0 -6.4708633 5.2456713 -11.716534 11.716536 -11.716534l0 0c3.107418 0 6.0875645 1.234417 8.284842 3.431694c2.197277 2.197277 3.431694 5.1774216 3.431694 8.28484l0 0c0 6.4708633 -5.245672 11.716537 -11.716536 11.716537l0 0c-6.4708643 0 -11.716536 -5.245674 -11.716536 -11.716537z" fill-rule="evenodd"/><path stroke="#000000" stroke-width="4.0" stroke-linejoin="round" stroke-linecap="butt" d="m6.531496 48.37278l0 0c0 -6.4708633 5.2456713 -11.716534 11.716536 -11.716534l0 0c3.107418 0 6.0875645 1.234417 8.284842 3.431694c2.197277 2.197277 3.431694 5.1774216 3.431694 8.28484l0 0c0 6.4708633 -5.245672 11.716537 -11.716536 11.716537l0 0c-6.4708643 0 -11.716536 -5.245674 -11.716536 -11.716537z" fill-rule="evenodd"/><path fill="#ffff00" d="m66.03543 48.37278l0 0c0 -6.4708633 5.245674 -11.716534 11.716537 -11.716534l0 0c3.1074142 0 6.0875626 1.234417 8.284843 3.431694c2.1972733 2.197277 3.431694 5.1774216 3.431694 8.28484l0 0c0 6.4708633 -5.245674 11.716537 -11.716537 11.716537l0 0c-6.4708633 0 -11.716537 -5.245674 -11.716537 -11.716537z" fill-rule="evenodd"/><path stroke="#000000" stroke-width="4.0" stroke-linejoin="round" stroke-linecap="butt" d="m66.03543 48.37278l0 0c0 -6.4708633 5.245674 -11.716534 11.716537 -11.716534l0 0c3.1074142 0 6.0875626 1.234417 8.284843 3.431694c2.1972733 2.197277 3.431694 5.1774216 3.431694 8.28484l0 0c0 6.4708633 -5.245674 11.716537 -11.716537 11.716537l0 0c-6.4708633 0 -11.716537 -5.245674 -11.716537 -11.716537z" fill-rule="evenodd"/><path fill="#ffff00" d="m35.320995 75.86152l0 0c0 -6.4708633 5.2456703 -11.71653 11.716534 -11.71653l0 0c3.107418 0 6.0875664 1.2344131 8.284843 3.431694c2.197277 2.1972733 3.431694 5.1774216 3.431694 8.284836l0 0c0 6.4708633 -5.245674 11.716537 -11.716537 11.716537l0 0c-6.4708633 0 -11.716534 -5.245674 -11.716534 -11.716537z" fill-rule="evenodd"/><path stroke="#000000" stroke-width="4.0" stroke-linejoin="round" stroke-linecap="butt" d="m35.320995 75.86152l0 0c0 -6.4708633 5.2456703 -11.71653 11.716534 -11.71653l0 0c3.107418 0 6.0875664 1.2344131 8.284843 3.431694c2.197277 2.1972733 3.431694 5.1774216 3.431694 8.284836l0 0c0 6.4708633 -5.245674 11.716537 -11.716537 11.716537l0 0c-6.4708633 0 -11.716534 -5.245674 -11.716534 -11.716537z" fill-rule="evenodd"/><path fill="#ffff00" d="m35.320995 20.170597l0 0c0 -6.4708643 5.2456703 -11.716536 11.716534 -11.716536l0 0c3.107418 0 6.0875664 1.234417 8.284843 3.431694c2.197277 2.197276 3.431694 5.1774235 3.431694 8.284842l0 0c0 6.4708633 -5.245674 11.716536 -11.716537 11.716536l0 0c-6.4708633 0 -11.716534 -5.245672 -11.716534 -11.716536z" fill-rule="evenodd"/><path stroke="#000000" stroke-width="4.0" stroke-linejoin="round" stroke-linecap="butt" d="m35.320995 20.170597l0 0c0 -6.4708643 5.2456703 -11.716536 11.716534 -11.716536l0 0c3.107418 0 6.0875664 1.234417 8.284843 3.431694c2.197277 2.197276 3.431694 5.1774235 3.431694 8.284842l0 0c0 6.4708633 -5.245674 11.716536 -11.716537 11.716536l0 0c-6.4708633 0 -11.716534 -5.245672 -11.716534 -11.716536z" fill-rule="evenodd"/></g></svg>