<svg
  version="1.1"
  viewBox="0.0 0.0 96.0 96.0"
  fill="none"
  stroke="none"
  stroke-linecap="square"
  stroke-miterlimit="10"
  xmlns:xlink="http://www.w3.org/1999/xlink"
  xmlns="http://www.w3.org/2000/svg"
><clipPath id="g14470d71bf0_0_406.0"><path
      d="m0 0l96.0 0l0 96.0l-96.0 0l0 -96.0z"
      clip-rule="nonzero"
    /></clipPath><g clip-path="url(#g14470d71bf0_0_406.0)"><path
      fill="#000000"
      fill-opacity="0.0"
      d="m0 0l96.0 0l0 96.0l-96.0 0z"
      fill-rule="evenodd"
    /><path
      fill="#f4cccc"
      d="m26.036745 22.170603l37.385826 -6.8083982l-0.13385773 29.238846l29.640415 -5.3412094l-0.13385773 38.58793l-66.62467 11.884514z"
      fill-rule="evenodd"
    /><path
      stroke="#000000"
      stroke-width="4.0"
      stroke-linejoin="round"
      stroke-linecap="butt"
      d="m26.036745 22.170603l37.385826 -6.8083982l-0.13385773 29.238846l29.640415 -5.3412094l-0.13385773 38.58793l-66.62467 11.884514z"
      fill-rule="evenodd"
    /><path
      fill="#999999"
      d="m3.8740158 12.958005l0 67.69291l22.296587 9.346458l-0.13385773 -67.55905z"
      fill-rule="evenodd"
    /><path
      stroke="#000000"
      stroke-width="4.0"
      stroke-linejoin="round"
      stroke-linecap="butt"
      d="m3.8740158 12.958005l0 67.69291l22.296587 9.346458l-0.13385773 -67.55905z"
      fill-rule="evenodd"
    /><path
      fill="#ffff00"
      d="m36.317585 32.317585l4.8057747 -1.0682411l-0.26509094 8.813648l0.5328064 4.005249l1.6036758 3.338585l1.3333321 1.6010475l3.0708656 2.5380592l12.952759 4.9396324l2.27034 0.6666641l20.826775 -4.005249l-0.13123322 15.354332l-46.866146 8.545929z"
      fill-rule="evenodd"
    /><path
      stroke="#000000"
      stroke-width="4.0"
      stroke-linejoin="round"
      stroke-linecap="butt"
      d="m36.317585 32.317585l4.8057747 -1.0682411l-0.26509094 8.813648l0.5328064 4.005249l1.6036758 3.338585l1.3333321 1.6010475l3.0708656 2.5380592l12.952759 4.9396324l2.27034 0.6666641l20.826775 -4.005249l-0.13123322 15.354332l-46.866146 8.545929z"
      fill-rule="evenodd"
    /><path
      fill="#ffff00"
      d="m41.658794 31.115486l12.729656 -2.2677174l-0.25196838 17.62205l0.75328064 3.4724388l1.005249 2.1364822l1.8871422 2.4042015l1.63517 1.3333321l-12.417324 -4.8057747l-3.6063004 -2.6692924l-2.0026245 -4.54068z"
      fill-rule="evenodd"
    /><path
      stroke="#000000"
      stroke-width="4.0"
      stroke-linejoin="round"
      stroke-linecap="butt"
      d="m41.658794 31.115486l12.729656 -2.2677174l-0.25196838 17.62205l0.75328064 3.4724388l1.005249 2.1364822l1.8871422 2.4042015l1.63517 1.3333321l-12.417324 -4.8057747l-3.6063004 -2.6692924l-2.0026245 -4.54068z"
      fill-rule="evenodd"
    /><path
      fill="#999999"
      d="m63.422573 31.383202l7.608921 -1.6010494l21.897636 9.078741l-29.3727 5.4750633z"
      fill-rule="evenodd"
    /><path
      stroke="#000000"
      stroke-width="4.0"
      stroke-linejoin="round"
      stroke-linecap="butt"
      d="m63.422573 31.383202l7.608921 -1.6010494l21.897636 9.078741l-29.3727 5.4750633z"
      fill-rule="evenodd"
    /><path
      fill="#999999"
      d="m4.0052495 12.958005l22.031496 9.212598l37.25197 -6.942256l-21.228348 -9.346457z"
      fill-rule="evenodd"
    /><path
      stroke="#000000"
      stroke-width="4.0"
      stroke-linejoin="round"
      stroke-linecap="butt"
      d="m4.0052495 12.958005l22.031496 9.212598l37.25197 -6.942256l-21.228348 -9.346457z"
      fill-rule="evenodd"
    /><path
      fill="#000000"
      fill-opacity="0.0"
      d="m42.060368 41.53018l12.157478 5.354332"
      fill-rule="evenodd"
    /><path
      stroke="#000000"
      stroke-width="4.0"
      stroke-linejoin="round"
      stroke-linecap="butt"
      d="m42.060368 41.53018l12.157478 5.354332"
      fill-rule="evenodd"
    /><path
      fill="#000000"
      fill-opacity="0.0"
      d="m36.317585 67.968506l32.440945 -6.3937035"
      fill-rule="evenodd"
    /><path
      stroke="#000000"
      stroke-width="4.0"
      stroke-linejoin="round"
      stroke-linecap="butt"
      d="m36.317585 67.968506l32.440945 -6.3937035"
      fill-rule="evenodd"
    /><path
      fill="#000000"
      fill-opacity="0.0"
      d="m68.49606 55.68504l-0.12598419 6.2677155"
      fill-rule="evenodd"
    /><path
      stroke="#000000"
      stroke-width="4.0"
      stroke-linejoin="round"
      stroke-linecap="butt"
      d="m68.49606 55.68504l-0.12598419 6.2677155"
      fill-rule="evenodd"
    /><path
      fill="#000000"
      fill-opacity="0.0"
      d="m83.31759 68.2336l-14.960632 -6.2677193"
      fill-rule="evenodd"
    /><path
      stroke="#000000"
      stroke-width="4.0"
      stroke-linejoin="round"
      stroke-linecap="butt"
      d="m83.31759 68.2336l-14.960632 -6.2677193"
      fill-rule="evenodd"
    /></g></svg>
