<svg version="1.1" viewBox="0.0 0.0 384.0 96.0" fill="none" stroke="none" stroke-linecap="square" stroke-miterlimit="10" xmlns:xlink="http://www.w3.org/1999/xlink" xmlns="http://www.w3.org/2000/svg"><clipPath id="p.0"><path d="m0 0l384.0 0l0 96.0l-384.0 0l0 -96.0z" clip-rule="nonzero"/></clipPath><g clip-path="url(#p.0)"><path fill="#ffffff" d="m0 0l384.0 0l0 96.0l-384.0 0z" fill-rule="evenodd"/><path fill="#000000" fill-opacity="0.0" d="m100.72319 2.3737879l288.44092 0l0 103.433075l-288.44092 0z" fill-rule="evenodd"/><path fill="#000000" d="m109.72319 11.373788l59.830124 0l0 83.2l-59.830124 0l0 -83.2z" fill-rule="nonzero"/><path fill="#000000" fill-opacity="0.0" d="m109.72319 -4.774604l59.830124 0l0 102.7442l-59.830124 0l0 -102.7442z" fill-rule="nonzero"/><path fill="#ffffff" d="m110.62944 79.38691l0 -8.65625q1.859375 0 3.171875 -0.203125q1.328125 -0.21875 2.09375 -0.796875q0.765625 -0.59375 1.109375 -1.734375q0.34375 -1.15625 0.34375 -2.953125l0 -43.265625l12.40625 0l0 43.8125q0 4.578125 -1.140625 7.671875q-1.140625 3.078125 -3.984375 4.609375q-2.84375 1.515625 -7.96875 1.515625l-6.03125 0zm42.351746 -0.625q-5.265625 0 -8.8125 -1.859375q-3.53125 -1.875 -5.328125 -5.796875q-1.796875 -3.921875 -2.015625 -10.15625l10.609375 -1.59375q0.078125 3.609375 0.65625 5.828125q0.59375 2.21875 1.671875 3.1875q1.078125 0.96875 2.59375 0.96875q1.9375 0 2.53125 -1.3125q0.59375 -1.328125 0.59375 -2.78125q0 -3.46875 -1.671875 -5.859375q-1.65625 -2.390625 -4.5 -4.8125l-4.859375 -4.234375q-3.1875 -2.703125 -5.375 -6.125q-2.171875 -3.4375 -2.171875 -8.5q0 -7.140623 4.21875 -10.921873q4.234375 -3.78125 11.515625 -3.78125q4.5 0 7.234375 1.53125q2.75 1.515625 4.171875 3.984375q1.421875 2.453125 1.9375 5.203125q0.515625 2.734373 0.59375 5.234373l-10.671875 1.3125q-0.078125 -2.5 -0.328125 -4.328125q-0.234375 -1.84375 -1.0 -2.843748q-0.765625 -1.015625 -2.359375 -1.015625q-1.734375 0 -2.53125 1.46875q-0.796875 1.4531231 -0.796875 2.906248q0 3.125 1.484375 5.109375q1.5 1.96875 3.921875 4.109375l4.65625 4.09375q3.671875 3.125 6.203125 7.078125q2.53125 3.9375 2.53125 9.765625q0 3.953125 -1.8125 7.1875q-1.796875 3.21875 -5.09375 5.09375q-3.28125 1.859375 -7.796875 1.859375z" fill-rule="nonzero"/><path fill="#010000" fill-opacity="0.0" d="m169.55331 -4.774604l206.52832 0l0 102.7442l-206.52832 0l0 -102.7442z" fill-rule="nonzero"/><path fill="#000000" d="m173.22519 77.933784l0 -56.15625l9.4375 0l0 32.234375l10.328125 -16.15625l10.25 0l-10.046875 16.09375l9.84375 23.984375l-9.90625 0l-7.28125 -19.765625l-3.1875 4.4375l0 15.328125l-9.4375 0zm45.61728 0.625q-4.5 0 -7.34375 -1.6875q-2.84375 -1.703125 -4.203125 -5.0q-1.34375 -3.296875 -1.34375 -7.9375l0 -12.0625q0 -4.78125 1.34375 -8.046875q1.359375 -3.265625 4.234375 -4.921875q2.875 -1.671875 7.3125 -1.671875q4.78125 0 7.453125 1.8125q2.671875 1.796875 3.8125 5.234375q1.140625 3.421875 1.140625 8.34375l0 5.6875l-15.9375 0l0 7.90625q0 1.9375 0.375 3.1875q0.390625 1.25 1.21875 1.8125q0.828125 0.546875 2.015625 0.546875q1.25 0 2.0 -0.578125q0.765625 -0.59375 1.109375 -1.734375q0.34375 -1.15625 0.34375 -2.890625l0 -3.328125l8.8125 0l0 2.703125q0 6.109375 -3.046875 9.375q-3.046875 3.25 -9.296875 3.25zm-3.53125 -24.890625l7.0625 0l0 -3.8125q0 -2.078125 -0.34375 -3.359375q-0.34375 -1.28125 -1.109375 -1.875q-0.75 -0.59375 -2.140625 -0.59375q-1.25 0 -2.015625 0.625q-0.765625 0.625 -1.109375 2.09375q-0.34375 1.453125 -0.34375 4.15625l0 2.765625zm33.904694 24.75q-3.8125 0 -6.0 -1.25q-2.1875 -1.25 -3.09375 -3.59375q-0.890625 -2.359375 -0.890625 -5.625l0 -23.84375l-4.03125 0l0 -6.25l4.03125 0l0 -11.984373l9.5 0l0 11.984373l6.09375 0l0 6.25l-6.09375 0l0 23.015625q0 2.078125 0.890625 2.953125q0.90625 0.859375 2.703125 0.859375q0.765625 0 1.484375 -0.0625q0.734375 -0.078125 1.4375 -0.140625l0 7.203125q-1.1875 0.140625 -2.75 0.3125q-1.546875 0.171875 -3.28125 0.171875zm23.501282 0.140625q-4.65625 0 -7.46875 -1.765625q-2.796875 -1.765625 -4.078125 -5.0625q-1.28125 -3.296875 -1.28125 -7.796875l0 -12.0625q0 -4.65625 1.28125 -7.90625q1.28125 -3.265625 4.125 -5.0q2.84375 -1.734375 7.421875 -1.734375q4.296875 0 7.03125 1.359375q2.734375 1.359375 3.984375 4.09375q1.25 2.734375 1.25 6.890625l0 3.328125l-8.875 0l0 -3.53125q0 -2.078125 -0.3125 -3.28125q-0.3125 -1.21875 -1.078125 -1.734375q-0.75 -0.53125 -2.0 -0.53125q-1.25 0 -2.015625 0.65625q-0.765625 0.65625 -1.078125 2.125q-0.3125 1.453125 -0.3125 4.015625l0 14.6875q0 3.890625 0.828125 5.25q0.84375 1.34375 2.640625 1.34375q1.390625 0 2.109375 -0.625q0.734375 -0.625 0.96875 -1.828125q0.25 -1.21875 0.25 -2.953125l0 -4.296875l8.875 0l0 3.8125q0 4.015625 -1.28125 6.859375q-1.28125 2.84375 -4.03125 4.265625q-2.734375 1.421875 -6.953125 1.421875zm18.582489 -0.625l0 -56.15625l9.421875 0l0 19.890623q2.078125 -2.078125 4.53125 -3.25q2.46875 -1.1875 5.390625 -1.1875q2.421875 0 3.875 1.21875q1.453125 1.21875 2.140625 3.234375q0.703125 2.0 0.703125 4.359375l0 31.890625l-9.4375 0l0 -30.015625q0 -1.8125 -0.5625 -2.78125q-0.546875 -0.96875 -2.140625 -0.96875q-0.96875 0 -2.1875 0.5625q-1.203125 0.546875 -2.3125 1.453125l0 31.75l-9.421875 0zm45.1232 0.625q-4.5 0 -7.34375 -1.6875q-2.84375 -1.703125 -4.203125 -5.0q-1.34375 -3.296875 -1.34375 -7.9375l0 -12.0625q0 -4.78125 1.34375 -8.046875q1.359375 -3.265625 4.234375 -4.921875q2.875 -1.671875 7.3125 -1.671875q4.78125 0 7.453125 1.8125q2.671875 1.796875 3.8125 5.234375q1.140625 3.421875 1.140625 8.34375l0 5.6875l-15.9375 0l0 7.90625q0 1.9375 0.375 3.1875q0.390625 1.25 1.21875 1.8125q0.828125 0.546875 2.015625 0.546875q1.25 0 2.0 -0.578125q0.765625 -0.59375 1.109375 -1.734375q0.34375 -1.15625 0.34375 -2.890625l0 -3.328125l8.8125 0l0 2.703125q0 6.109375 -3.046875 9.375q-3.046875 3.25 -9.296875 3.25zm-3.53125 -24.890625l7.0625 0l0 -3.8125q0 -2.078125 -0.34375 -3.359375q-0.34375 -1.28125 -1.109375 -1.875q-0.75 -0.59375 -2.140625 -0.59375q-1.25 0 -2.015625 0.625q-0.765625 0.625 -1.109375 2.09375q-0.34375 1.453125 -0.34375 4.15625l0 2.765625zm22.529694 24.265625l0 -40.078125l9.4218445 0l0 6.171875q2.09375 -3.53125 4.171875 -5.09375q2.078125 -1.5625 4.578125 -1.5625q0.40625 0 0.71875 0.046875q0.3125 0.03125 0.734375 0.09375l0 9.78125q-0.84375 -0.34375 -1.84375 -0.578125q-1.0 -0.25 -2.046875 -0.25q-1.875 0 -3.40625 0.90625q-1.515625 0.890625 -2.90625 2.96875l0 27.59375l-9.4218445 0z" fill-rule="nonzero"/><path fill="#010000" fill-opacity="0.0" d="m376.08163 -4.774604l0 0l0 102.7442l0 0l0 -102.7442z" fill-rule="nonzero"/><path fill="#ffffff" d="m109.72319 82.44045l59.830124 0l0 6.239998l-59.830124 0l0 -6.239998z" fill-rule="nonzero"/><path fill="#000000" d="m169.55331 82.44045l206.52832 0l0 6.239998l-206.52832 0l0 -6.239998z" fill-rule="nonzero"/><path fill="#000000" fill-opacity="0.0" d="m18.416174 89.024506l36.503937 -59.275593l36.503937 59.275593z" fill-rule="evenodd"/><path stroke="#000000" stroke-width="3.0" stroke-linejoin="round" stroke-linecap="butt" d="m18.416174 89.024506l36.503937 -59.275593l36.503937 59.275593z" fill-rule="evenodd"/><path fill="#000000" fill-opacity="0.0" d="m43.87309 32.469547l0 0c0 -16.490267 13.241089 -29.858269 29.574802 -29.858269l0 0c7.843727 0 15.366196 3.1457727 20.912544 8.745284c5.5463486 5.599511 8.662262 13.194079 8.662262 21.112984l0 0c0 16.490265 -13.2410965 29.858269 -29.574806 29.858269l0 0c-16.333714 0 -29.574802 -13.368004 -29.574802 -29.858269z" fill-rule="evenodd"/><path stroke="#000000" stroke-width="3.0" stroke-linejoin="round" stroke-linecap="butt" d="m43.87309 32.469547l0 0c0 -16.490267 13.241089 -29.858269 29.574802 -29.858269l0 0c7.843727 0 15.366196 3.1457727 20.912544 8.745284c5.5463486 5.599511 8.662262 13.194079 8.662262 21.112984l0 0c0 16.490265 -13.2410965 29.858269 -29.574806 29.858269l0 0c-16.333714 0 -29.574802 -13.368004 -29.574802 -29.858269z" fill-rule="evenodd"/><path fill="#000000" fill-opacity="0.0" d="m7.5090146 34.7051c5.0629916 5.3826103 19.046034 31.317528 30.377949 32.295677c11.331917 0.9781494 26.763588 -26.181896 37.61355 -26.42678c10.849953 -0.2448883 22.905151 20.797886 27.486183 24.957466" fill-rule="evenodd"/><path stroke="#000000" stroke-width="3.0" stroke-linejoin="round" stroke-linecap="butt" d="m7.5090146 34.7051c5.0629916 5.3826103 19.046034 31.317528 30.377949 32.295677c11.331917 0.9781494 26.763588 -26.181896 37.61355 -26.42678c10.849953 -0.2448883 22.905151 20.797886 27.486183 24.957466" fill-rule="evenodd"/><path fill="#000000" fill-opacity="0.0" d="m44.908314 44.077927l1.0112 -0.20878983l0.21714401 -0.9723091l0.21714401 0.9723091l1.0112038 0.20878983l-1.0112038 0.20879364l-0.21714401 0.9723091l-0.21714401 -0.9723091z" fill-rule="evenodd"/><path stroke="#0000ff" stroke-width="2.0" stroke-linejoin="round" stroke-linecap="butt" d="m44.908314 44.077927l1.0112 -0.20878983l0.21714401 -0.9723091l0.21714401 0.9723091l1.0112038 0.20878983l-1.0112038 0.20879364l-0.21714401 0.9723091l-0.21714401 -0.9723091z" fill-rule="evenodd"/><path fill="#000000" fill-opacity="0.0" d="m63.90654 46.287624l1.0112 -0.20879364l0.21714783 -0.9723091l0.2171402 0.9723091l1.0112076 0.20879364l-1.0112076 0.20878983l-0.2171402 0.9723129l-0.21714783 -0.9723129z" fill-rule="evenodd"/><path stroke="#0000ff" stroke-width="2.0" stroke-linejoin="round" stroke-linecap="butt" d="m63.90654 46.287624l1.0112 -0.20879364l0.21714783 -0.9723091l0.2171402 0.9723091l1.0112076 0.20879364l-1.0112076 0.20878983l-0.2171402 0.9723129l-0.21714783 -0.9723129z" fill-rule="evenodd"/><path fill="#000000" fill-opacity="0.0" d="m53.990578 55.861343l1.0112038 -0.20879364l0.21714401 -0.9723091l0.21714401 0.9723091l1.0112038 0.20879364l-1.0112038 0.20878983l-0.21714401 0.9723091l-0.21714401 -0.9723091z" fill-rule="evenodd"/><path stroke="#0000ff" stroke-width="2.0" stroke-linejoin="round" stroke-linecap="butt" d="m53.990578 55.861343l1.0112038 -0.20879364l0.21714401 -0.9723091l0.21714401 0.9723091l1.0112038 0.20879364l-1.0112038 0.20878983l-0.21714401 0.9723091l-0.21714401 -0.9723091z" fill-rule="evenodd"/><path fill="#000000" fill-opacity="0.0" d="m73.78051 62.25847l1.0112 -0.20878983l0.21714783 -0.9723091l0.2171402 0.9723091l1.0112 0.20878983l-1.0112 0.20879364l-0.2171402 0.9723091l-0.21714783 -0.9723091z" fill-rule="evenodd"/><path stroke="#0000ff" stroke-width="2.0" stroke-linejoin="round" stroke-linecap="butt" d="m73.78051 62.25847l1.0112 -0.20878983l0.21714783 -0.9723091l0.2171402 0.9723091l1.0112 0.20878983l-1.0112 0.20879364l-0.2171402 0.9723091l-0.21714783 -0.9723091z" fill-rule="evenodd"/><path fill="#000000" fill-opacity="0.0" d="m31.785301 65.13637l1.0112038 -0.20879364l0.21714401 -0.9723129l0.21714401 0.9723129l1.0112038 0.20879364l-1.0112038 0.20878601l-0.21714401 0.9723129l-0.21714401 -0.9723129z" fill-rule="evenodd"/><path stroke="#0000ff" stroke-width="2.0" stroke-linejoin="round" stroke-linecap="butt" d="m31.785301 65.13637l1.0112038 -0.20879364l0.21714401 -0.9723129l0.21714401 0.9723129l1.0112038 0.20879364l-1.0112038 0.20878601l-0.21714401 0.9723129l-0.21714401 -0.9723129z" fill-rule="evenodd"/><path fill="#000000" fill-opacity="0.0" d="m92.61165 54.088703l1.0112 -0.20879364l0.21714783 -0.9723091l0.2171402 0.9723091l1.0112076 0.20879364l-1.0112076 0.20878983l-0.2171402 0.9723129l-0.21714783 -0.9723129z" fill-rule="evenodd"/><path stroke="#0000ff" stroke-width="2.0" stroke-linejoin="round" stroke-linecap="butt" d="m92.61165 54.088703l1.0112 -0.20879364l0.21714783 -0.9723091l0.2171402 0.9723091l1.0112076 0.20879364l-1.0112076 0.20878983l-0.2171402 0.9723129l-0.21714783 -0.9723129z" fill-rule="evenodd"/><path fill="#000000" fill-opacity="0.0" d="m17.097637 88.95001l1.0112038 -0.20879364l0.21714401 -0.9723053l0.2171421 0.9723053l1.0112038 0.20879364l-1.0112038 0.20879364l-0.2171421 0.9723129l-0.21714401 -0.9723129z" fill-rule="evenodd"/><path stroke="#0000ff" stroke-width="2.0" stroke-linejoin="round" stroke-linecap="butt" d="m17.097637 88.95001l1.0112038 -0.20879364l0.21714401 -0.9723053l0.2171421 0.9723053l1.0112038 0.20879364l-1.0112038 0.20879364l-0.2171421 0.9723129l-0.21714401 -0.9723129z" fill-rule="evenodd"/><path fill="#000000" fill-opacity="0.0" d="m89.72231 88.95001l1.0112 -0.20879364l0.2171402 -0.9723053l0.21714783 0.9723053l1.0112 0.20879364l-1.0112 0.20879364l-0.21714783 0.9723129l-0.2171402 -0.9723129z" fill-rule="evenodd"/><path stroke="#0000ff" stroke-width="2.0" stroke-linejoin="round" stroke-linecap="butt" d="m89.72231 88.95001l1.0112 -0.20879364l0.2171402 -0.9723053l0.21714783 0.9723053l1.0112 0.20879364l-1.0112 0.20879364l-0.21714783 0.9723129l-0.2171402 -0.9723129z" fill-rule="evenodd"/><path fill="#000000" fill-opacity="0.0" d="m101.78051 65.444824l1.0112 -0.20879364l0.21714783 -0.9723129l0.2171402 0.9723129l1.0112 0.20879364l-1.0112 0.20878601l-0.2171402 0.9723129l-0.21714783 -0.9723129z" fill-rule="evenodd"/><path stroke="#0000ff" stroke-width="2.0" stroke-linejoin="round" stroke-linecap="butt" d="m101.78051 65.444824l1.0112 -0.20879364l0.21714783 -0.9723129l0.2171402 0.9723129l1.0112 0.20879364l-1.0112 0.20878601l-0.2171402 0.9723129l-0.21714783 -0.9723129z" fill-rule="evenodd"/><path fill="#000000" fill-opacity="0.0" d="m6.661086 34.812275l1.0112033 -0.20878983l0.21714306 -0.9723129l0.21714354 0.9723129l1.0112028 0.20878983l-1.0112028 0.20879364l-0.21714354 0.9723091l-0.21714306 -0.9723091z" fill-rule="evenodd"/><path stroke="#0000ff" stroke-width="2.0" stroke-linejoin="round" stroke-linecap="butt" d="m6.661086 34.812275l1.0112033 -0.20878983l0.21714306 -0.9723129l0.21714354 0.9723129l1.0112028 0.20878983l-1.0112028 0.20879364l-0.21714354 0.9723091l-0.21714306 -0.9723091z" fill-rule="evenodd"/><path fill="#000000" fill-opacity="0.0" d="m53.698338 29.951944l1.0112038 -0.20879173l0.21714401 -0.972311l0.21714401 0.972311l1.0112038 0.20879173l-1.0112038 0.20879173l-0.21714401 0.972311l-0.21714401 -0.972311z" fill-rule="evenodd"/><path stroke="#0000ff" stroke-width="2.0" stroke-linejoin="round" stroke-linecap="butt" d="m53.698338 29.951944l1.0112038 -0.20879173l0.21714401 -0.972311l0.21714401 0.972311l1.0112038 0.20879173l-1.0112038 0.20879173l-0.21714401 0.972311l-0.21714401 -0.972311z" fill-rule="evenodd"/><path fill="#000000" fill-opacity="0.0" d="m72.22196 32.47163l1.0112 -0.20879364l0.21714783 -0.9723091l0.2171402 0.9723091l1.0112 0.20879364l-1.0112 0.20878983l-0.2171402 0.9723129l-0.21714783 -0.9723129z" fill-rule="evenodd"/><path stroke="#0000ff" stroke-width="2.0" stroke-linejoin="round" stroke-linecap="butt" d="m72.22196 32.47163l1.0112 -0.20879364l0.21714783 -0.9723091l0.2171402 0.9723091l1.0112 0.20879364l-1.0112 0.20878983l-0.2171402 0.9723129l-0.21714783 -0.9723129z" fill-rule="evenodd"/><path fill="#000000" fill-opacity="0.0" d="m350.6378 14.598425l42.771667 0l0 30.708662l-42.771667 0z" fill-rule="evenodd"/><path fill="#000000" d="m362.05966 32.558426l0 -5.890627l-2.203125 0l0 -0.78125l5.296875 0l0 0.78125l-2.21875 0l0 5.890627l-0.875 0zm3.963623 0l0 -6.671877l1.328125 0l1.59375 4.71875q0.21875 0.671875 0.3125 0.984375q0.109375 -0.359375 0.359375 -1.0625l1.59375 -4.640625l1.1875 0l0 6.671877l-0.84375 0l0 -5.593752l-1.953125 5.593752l-0.796875 0l-1.921875 -5.687502l0 5.687502l-0.859375 0z" fill-rule="nonzero"/></g></svg>