<svg
  version="1.1"
  viewBox="0.0 0.0 96.0 96.0"
  fill="none"
  stroke="none"
  stroke-linecap="square"
  stroke-miterlimit="10"
  xmlns:xlink="http://www.w3.org/1999/xlink"
  xmlns="http://www.w3.org/2000/svg"
><clipPath id="g14470d71bf0_0_159.0"><path
      d="m0 0l96.0 0l0 96.0l-96.0 0l0 -96.0z"
      clip-rule="nonzero"
    /></clipPath><g clip-path="url(#g14470d71bf0_0_159.0)"><path
      fill="#000000"
      fill-opacity="0.0"
      d="m0 0l96.0 0l0 96.0l-96.0 0z"
      fill-rule="evenodd"
    /><path
      fill="#f3f3f3"
      d="m88.48879 3.2123795l-80.97638 19.501541l0 70.26224l80.97638 -19.501541z"
      fill-rule="evenodd"
    /><path
      stroke="#00ffff"
      stroke-width="4.0"
      stroke-linejoin="round"
      stroke-linecap="butt"
      d="m88.48879 3.2123795l-80.97638 19.501541l0 70.26224l80.97638 -19.501541z"
      fill-rule="evenodd"
    /><path
      fill="#000000"
      fill-opacity="0.0"
      d="m43.02016 65.85695l-26.827929 -37.260406l62.099945 -14.485836z"
      fill-rule="evenodd"
    /><path
      stroke="#000000"
      stroke-width="4.0"
      stroke-linejoin="round"
      stroke-linecap="butt"
      d="m43.02016 65.85695l-26.827929 -37.260406l62.099945 -14.485836z"
      fill-rule="evenodd"
    /><path
      fill="#000000"
      fill-opacity="0.0"
      d="m55.809586 65.305626l0 0c-2.3222046 -6.183853 2.161995 -13.3755 10.015747 -16.062996l0 0c7.853752 -2.6874962 16.10299 0.14686203 18.425194 6.3307114l0 0c2.3222046 6.1838493 -2.161995 13.375496 -10.015747 16.062988l0 0c-7.8537445 2.6875 -16.10299 -0.14685822 -18.425194 -6.3307037z"
      fill-rule="evenodd"
    /><path
      stroke="#000000"
      stroke-width="4.0"
      stroke-linejoin="round"
      stroke-linecap="butt"
      d="m55.809586 65.305626l0 0c-2.3222046 -6.183853 2.161995 -13.3755 10.015747 -16.062996l0 0c7.853752 -2.6874962 16.10299 0.14686203 18.425194 6.3307114l0 0c2.3222046 6.1838493 -2.161995 13.375496 -10.015747 16.062988l0 0c-7.8537445 2.6875 -16.10299 -0.14685822 -18.425194 -6.3307037z"
      fill-rule="evenodd"
    /></g></svg>
