<svg
  version="1.1"
  viewBox="0.0 0.0 96.0 96.0"
  fill="none"
  stroke="none"
  stroke-linecap="square"
  stroke-miterlimit="10"
  xmlns:xlink="http://www.w3.org/1999/xlink"
  xmlns="http://www.w3.org/2000/svg"
><clipPath id="g14470d71bf0_0_306.0"><path
      d="m0 0l96.0 0l0 96.0l-96.0 0l0 -96.0z"
      clip-rule="nonzero"
    /></clipPath><g clip-path="url(#g14470d71bf0_0_306.0)"><path
      fill="#000000"
      fill-opacity="0.0"
      d="m0 0l96.0 0l0 96.0l-96.0 0z"
      fill-rule="evenodd"
    /><path
      fill="#ffff00"
      d="m14.929133 48.0l0 0c0 -17.48177 14.806331 -31.653543 33.070866 -31.653543l0 0c8.770939 0 17.18264 3.334917 23.384636 9.271109c6.201988 5.9361897 9.6862335 13.987392 9.6862335 22.382435l0 0c0 17.481766 -14.806335 31.653542 -33.07087 31.653542l0 0c-18.264536 0 -33.070866 -14.171776 -33.070866 -31.653542z"
      fill-rule="evenodd"
    /><path
      stroke="#000000"
      stroke-width="4.0"
      stroke-linejoin="round"
      stroke-linecap="butt"
      d="m14.929133 48.0l0 0c0 -17.48177 14.806331 -31.653543 33.070866 -31.653543l0 0c8.770939 0 17.18264 3.334917 23.384636 9.271109c6.201988 5.9361897 9.6862335 13.987392 9.6862335 22.382435l0 0c0 17.481766 -14.806335 31.653542 -33.07087 31.653542l0 0c-18.264536 0 -33.070866 -14.171776 -33.070866 -31.653542z"
      fill-rule="evenodd"
    /></g></svg>
