<svg
  version="1.1"
  viewBox="0.0 0.0 96.0 96.0"
  fill="none"
  stroke="none"
  stroke-linecap="square"
  stroke-miterlimit="10"
  xmlns:xlink="http://www.w3.org/1999/xlink"
  xmlns="http://www.w3.org/2000/svg"
><clipPath id="g1c14d1f6e3c_0_0.0"><path
      d="m0 0l96.0 0l0 96.0l-96.0 0l0 -96.0z"
      clip-rule="nonzero"
    /></clipPath><g clip-path="url(#g1c14d1f6e3c_0_0.0)"><path
      fill="#000000"
      fill-opacity="0.0"
      d="m0 0l96.0 0l0 96.0l-96.0 0z"
      fill-rule="evenodd"
    /><path
      fill="#da4e6c"
      d="m4.1364827 71.18635l0 0c0 -8.410381 6.817963 -15.228344 15.228348 -15.228344l0 0c4.038809 0 7.912197 1.6044121 10.768066 4.4602814c2.8558693 2.8558693 4.4602776 6.7292595 4.4602776 10.768063l0 0c0 8.410385 -6.8179607 15.228348 -15.228344 15.228348l0 0c-8.410384 0 -15.228348 -6.8179626 -15.228348 -15.228348z"
      fill-rule="evenodd"
    /><path
      fill="#3a9ee9"
      d="m28.729658 71.12861l0 0c0 -11.854553 9.673471 -21.464565 21.606298 -21.464565l0 0c5.7303467 0 11.225994 2.2614365 15.277966 6.2868233c4.051964 4.025387 6.3283386 9.484985 6.3283386 15.177742l0 0c0 11.854553 -9.673473 21.46457 -21.606304 21.46457l0 0c-11.932827 0 -21.606298 -9.610016 -21.606298 -21.46457z"
      fill-rule="evenodd"
    /><path
      fill="#4285f4"
      d="m71.96218 10.560497l6.8878784 4.0894766l0 0c9.708107 5.763896 12.922638 18.316566 7.179863 28.037178l0 0l8.636406 5.1276093l-22.564964 8.988205l-2.9834442 -24.15681l8.636406 5.1276093l0 0l0 0c3.0391312 -5.1442375 1.3379745 -11.78723 -3.7996445 -14.837538l-6.887886 -4.0894775z"
      fill-rule="evenodd"
    /><path
      stroke="#4285f4"
      stroke-width="1.0"
      stroke-linejoin="round"
      stroke-linecap="butt"
      d="m71.96218 10.560497l6.8878784 4.0894766l0 0c9.708107 5.763896 12.922638 18.316566 7.179863 28.037178l0 0l8.636406 5.1276093l-22.564964 8.988205l-2.9834442 -24.15681l8.636406 5.1276093l0 0l0 0c3.0391312 -5.1442375 1.3379745 -11.78723 -3.7996445 -14.837538l-6.887886 -4.0894775z"
      fill-rule="evenodd"
    /><path
      fill="#999999"
      d="m27.267698 25.058165l3.3166294 -2.291874l1.2669373 -3.708126l4.0996704 -1.04904175E-4l3.31678 -2.2916565l3.31678 2.2916565l4.099674 1.04904175E-4l1.2669373 3.708126l3.3166275 2.291874l-1.2667999 3.7082386l1.2667999 3.7082405l-3.3166275 2.291874l-1.2669373 3.708126l-4.099674 1.02996826E-4l-3.31678 2.2916565l-3.31678 -2.2916565l-4.0996704 -1.02996826E-4l-1.2669373 -3.708126l-3.3166294 -2.291874l1.266798 -3.7082405z"
      fill-rule="evenodd"
    /><path
      stroke="#000000"
      stroke-width="2.0"
      stroke-linejoin="round"
      stroke-linecap="butt"
      d="m27.267698 25.058165l3.3166294 -2.291874l1.2669373 -3.708126l4.0996704 -1.04904175E-4l3.31678 -2.2916565l3.31678 2.2916565l4.099674 1.04904175E-4l1.2669373 3.708126l3.3166275 2.291874l-1.2667999 3.7082386l1.2667999 3.7082405l-3.3166275 2.291874l-1.2669373 3.708126l-4.099674 1.02996826E-4l-3.31678 2.2916565l-3.31678 -2.2916565l-4.0996704 -1.02996826E-4l-1.2669373 -3.708126l-3.3166294 -2.291874l1.266798 -3.7082405z"
      fill-rule="evenodd"
    /><path
      fill="#999999"
      d="m46.6824 10.308961l2.520115 -1.70537l0.9626732 -2.7591972l3.1151085 -7.772446E-5l2.5202293 -1.7052083l2.5202293 1.7052083l3.1151047 7.772446E-5l0.9626732 2.7591972l2.520115 1.70537l-0.9625664 2.7592812l0.9625664 2.7592802l-2.520115 1.70537l-0.9626732 2.7591972l-3.1151047 7.8201294E-5l-2.5202293 1.7052078l-2.5202293 -1.7052078l-3.1151085 -7.8201294E-5l-0.9626732 -2.7591972l-2.520115 -1.70537l0.9625702 -2.7592802z"
      fill-rule="evenodd"
    /><path
      stroke="#000000"
      stroke-width="2.0"
      stroke-linejoin="round"
      stroke-linecap="butt"
      d="m46.6824 10.308961l2.520115 -1.70537l0.9626732 -2.7591972l3.1151085 -7.772446E-5l2.5202293 -1.7052083l2.5202293 1.7052083l3.1151047 7.772446E-5l0.9626732 2.7591972l2.520115 1.70537l-0.9625664 2.7592812l0.9625664 2.7592802l-2.520115 1.70537l-0.9626732 2.7591972l-3.1151047 7.8201294E-5l-2.5202293 1.7052078l-2.5202293 -1.7052078l-3.1151085 -7.8201294E-5l-0.9626732 -2.7591972l-2.520115 -1.70537l0.9625702 -2.7592802z"
      fill-rule="evenodd"
    /><path
      fill="#000000"
      fill-opacity="0.0"
      d="m35.96063 28.782152l0 0c0 -1.7481766 1.4806328 -3.1653538 3.307087 -3.1653538l0 0c0.87709427 0 1.7182655 0.33349037 2.3384628 0.9271107c0.6202011 0.5936184 0.9686241 1.3987389 0.9686241 2.238243l0 0c0 1.7481766 -1.4806328 3.1653538 -3.307087 3.1653538l0 0c-1.8264542 0 -3.307087 -1.4171772 -3.307087 -3.1653538z"
      fill-rule="evenodd"
    /><path
      stroke="#000000"
      stroke-width="2.0"
      stroke-linejoin="round"
      stroke-linecap="butt"
      d="m35.96063 28.782152l0 0c0 -1.7481766 1.4806328 -3.1653538 3.307087 -3.1653538l0 0c0.87709427 0 1.7182655 0.33349037 2.3384628 0.9271107c0.6202011 0.5936184 0.9686241 1.3987389 0.9686241 2.238243l0 0c0 1.7481766 -1.4806328 3.1653538 -3.307087 3.1653538l0 0c-1.8264542 0 -3.307087 -1.4171772 -3.307087 -3.1653538z"
      fill-rule="evenodd"
    /><path
      fill="#000000"
      fill-opacity="0.0"
      d="m52.49344 13.099738l0 0c0 -1.7481775 1.4806328 -3.1653547 3.307087 -3.1653547l0 0c0.87709427 0 1.7182617 0.33349228 2.3384628 0.9271107c0.6201973 0.59361935 0.9686241 1.3987398 0.9686241 2.238244l0 0c0 1.7481766 -1.4806328 3.1653547 -3.307087 3.1653547l0 0c-1.8264542 0 -3.307087 -1.4171782 -3.307087 -3.1653547z"
      fill-rule="evenodd"
    /><path
      stroke="#000000"
      stroke-width="2.0"
      stroke-linejoin="round"
      stroke-linecap="butt"
      d="m52.49344 13.099738l0 0c0 -1.7481775 1.4806328 -3.1653547 3.307087 -3.1653547l0 0c0.87709427 0 1.7182617 0.33349228 2.3384628 0.9271107c0.6201973 0.59361935 0.9686241 1.3987398 0.9686241 2.238244l0 0c0 1.7481766 -1.4806328 3.1653547 -3.307087 3.1653547l0 0c-1.8264542 0 -3.307087 -1.4171782 -3.307087 -3.1653547z"
      fill-rule="evenodd"
    /><path
      fill="#4e75b9"
      d="m31.181082 61.485565l9.637796 9.6377945l-9.763781 9.763779l-9.6377945 -9.6377945z"
      fill-rule="evenodd"
    /><path
      fill="#ffffff"
      d="m55.091316 75.88532l0 0c-2.6266174 2.6266174 -6.8851967 2.6266174 -9.511814 0q-2.3779526 -2.3779526 -4.755905 -4.755905q2.3779526 -2.3779526 4.755905 -4.755905l0 0c2.6266174 -2.6266136 6.8851967 -2.6266136 9.511814 0l0 0c2.6266136 2.6266174 2.6266136 6.8852005 0 9.51181z"
      fill-rule="evenodd"
    /></g></svg>
